<?xml version="1.0" encoding="utf-8"?>
<!-- Generator: Adobe Illustrator 23.0.0, SVG Export Plug-In . SVG Version: 6.00 Build 0)  -->
<svg version="1.1" id="Layer_1" xmlns="http://www.w3.org/2000/svg" xmlns:xlink="http://www.w3.org/1999/xlink" x="0px" y="0px"
	 viewBox="0 0 477.12 95.08" style="enable-background:new 0 0 477.12 95.08;" xml:space="preserve">
<style type="text/css">
	.st0{fill:none;}
	.st1{font-family:'RobotoMono-Bold';}
	.st2{font-size:53px;}
	.st3{fill:#FFFFFF;}
	.st4{fill:none;stroke:#000000;stroke-width:2.5;stroke-miterlimit:10;}
	.st5{fill:none;stroke:#ED1C24;stroke-miterlimit:10;}
</style>
<rect x="222.46" width="254.66" height="95.08"/>
<g>
	<g>
		<g>
			<path d="M77.64,20.74L49,3.74c-1.71-1.01-3.62-1.52-5.52-1.52s-3.82,0.51-5.52,1.52l-28.64,17C5.9,22.77,3.8,26.52,3.8,30.58v34
				c0,4.06,2.11,7.81,5.52,9.84l28.64,17c1.71,1.01,3.62,1.52,5.52,1.52c1.91,0,3.81-0.51,5.52-1.52l28.64-17
				c3.42-2.03,5.52-5.78,5.52-9.84v-34C83.17,26.52,81.06,22.77,77.64,20.74z M55.46,73.83l0.05,2.44c0,0.29-0.19,0.63-0.42,0.75
				l-1.45,0.83c-0.23,0.12-0.42-0.03-0.42-0.32l-0.02-2.4c-1.24,0.52-2.49,0.64-3.3,0.32c-0.15-0.06-0.22-0.28-0.16-0.54l0.52-2.21
				c0.04-0.17,0.13-0.35,0.26-0.46c0.04-0.04,0.09-0.08,0.14-0.1c0.08-0.04,0.16-0.05,0.23-0.02c0.86,0.29,1.97,0.15,3.03-0.38
				c1.35-0.68,2.25-2.06,2.24-3.43c-0.01-1.24-0.68-1.76-2.32-1.77c-2.08,0.01-4.02-0.4-4.05-3.47c-0.03-2.52,1.28-5.14,3.36-6.8
				l-0.03-2.47c0-0.3,0.18-0.64,0.42-0.76l1.4-0.89c0.23-0.12,0.42,0.03,0.42,0.33l0.02,2.47c1.03-0.41,1.93-0.52,2.74-0.33
				c0.18,0.05,0.25,0.29,0.18,0.57l-0.54,2.19c-0.04,0.17-0.13,0.33-0.25,0.44c-0.05,0.05-0.1,0.08-0.14,0.11
				c-0.07,0.04-0.15,0.05-0.21,0.04c-0.37-0.08-1.25-0.28-2.64,0.43c-1.46,0.74-1.96,2-1.96,2.94c0.01,1.12,0.59,1.46,2.57,1.5
				c2.65,0.04,3.79,1.2,3.82,3.86C59,69.3,57.6,72.11,55.46,73.83z M70.48,69.72c0,0.23-0.03,0.44-0.22,0.55l-7.24,4.4
				c-0.19,0.11-0.34,0.02-0.34-0.21v-1.87c0-0.23,0.14-0.35,0.33-0.46l7.13-4.27c0.19-0.11,0.34-0.02,0.34,0.21V69.72z M75.45,27.91
				L48.36,44.64c-3.38,1.98-5.87,4.19-5.87,8.26v33.38c0,2.44,0.98,4.02,2.5,4.48c-0.5,0.09-1,0.15-1.5,0.15
				c-1.59,0-3.15-0.43-4.52-1.25l-28.64-17c-2.8-1.66-4.54-4.76-4.54-8.1v-34c0-3.33,1.74-6.43,4.54-8.1l28.64-17
				c1.37-0.82,2.94-1.25,4.52-1.25S46.63,4.67,48,5.48l28.64,17c2.36,1.4,3.95,3.83,4.4,6.55C80.09,27,77.95,26.45,75.45,27.91z"/>
		</g>
	</g>
</g>
<rect x="94.51" y="28.43" class="st0" width="212.43" height="49.57"/>
<text transform="matrix(1 0 0 1 94.5064 68.1829)" class="st1 st2">BASH</text>
<g>
	<path class="st3" d="M230.16,28.82h20.12c0.2,0.03,0.29,0.13,0.29,0.29v6.99l-0.29,0.42l-0.99-0.15
		c-8.24,0.1-12.72,0.15-13.42,0.15v0.71c0,0.2-0.1,0.29-0.29,0.29h-2.56c-0.2,0.03-0.29,0.12-0.29,0.27v0.86
		c0.03,0.2,0.12,0.29,0.29,0.29h0.15c0.28,0,0.42-0.05,0.42-0.15c1.05,0.1,1.67,0.24,1.85,0.42h3.15c0.2,0.03,0.29,0.13,0.29,0.29
		v0.15c-0.87,0.08-1.68,0.13-2.44,0.13h-1.28v4.43c0.03,0.2,0.12,0.29,0.27,0.29h14.72c0.18,0.03,0.27,0.12,0.27,0.27v6.84
		c0,0.14-0.14,0.29-0.42,0.44h-11.84c-0.14,0-0.29,0.14-0.44,0.42v4.7l0.15,0.71h1.43c0.2,0.04,0.29,0.14,0.29,0.29v1.72
		c0,0.18-0.1,0.27-0.29,0.27h-1.43c0,0.1-0.05,0.25-0.15,0.44v3.13l0.15,0.71h4.14c0.2,0.03,0.29,0.13,0.29,0.29v0.13
		c0,0.2-0.15,0.29-0.44,0.29c-0.74,0-2.07,0.05-3.99,0.15c0,0.1-0.05,0.15-0.15,0.15l0.15,0.99v0.71c0,0.2-0.1,0.29-0.29,0.29h-9.85
		c-0.18,0-0.27-0.1-0.27-0.29v-1.7c0.03-0.2,0.12-0.29,0.27-0.29h3.3c0.49-0.1,0.78-0.15,0.86-0.15v-0.42l-3.72-0.15h-0.44
		c-0.18,0-0.27-0.09-0.27-0.27v-3.86c0.03-0.2,0.12-0.29,0.27-0.29h1.43v-1.85c0-0.2-0.57-0.34-1.7-0.42V44.65
		c-0.2,0-0.29-0.04-0.29-0.13c-0.1,0-0.15,0.04-0.15,0.13l-0.99-0.13h-1.01c-0.18,0-0.27-0.1-0.27-0.29V40.1
		c0.03-0.2,0.12-0.29,0.27-0.29c1.74-0.08,2.88-0.13,3.42-0.13c0-0.2-0.14-0.29-0.42-0.29c-1.36,0-2.74-0.14-4.14-0.42h-1.43v-1.15
		c0.03-0.18,0.13-0.27,0.29-0.27h0.84c0.1,0,0.15,0.04,0.15,0.13c0.17-0.07,0.74-0.16,1.72-0.27v-8.15l0.15-0.27
		C227.65,28.87,229.17,28.82,230.16,28.82z M225.46,58.07l0.15,0.29v1.43c0,0.18-0.1,0.27-0.29,0.27l-0.15-0.27v-1.43
		C225.2,58.17,225.29,58.07,225.46,58.07z M226.45,58.07h0.29c0.18,0.03,0.27,0.13,0.27,0.29v0.57c0,0.1-0.04,0.15-0.13,0.15
		l0.13,0.27v0.44c0,0.18-0.09,0.27-0.27,0.27h-0.29c-0.18,0-0.27-0.09-0.27-0.27v-1.43C226.2,58.17,226.29,58.07,226.45,58.07z"/>
	<path class="st3" d="M249.9,28.82h9.64c0.2,0.03,0.29,0.12,0.29,0.27v10.08h2.65c0.2,0.03,0.29,0.12,0.29,0.27v0.15
		c-1.26,0.1-2.2,0.15-2.81,0.15h-0.13v0.97l-0.71,0.57v0.84c0.32,0,0.65,0.23,0.99,0.69h1.68c0.18,0.03,0.27,0.13,0.27,0.29v7.26
		c0,0.18-0.09,0.27-0.27,0.27c-0.1,0-0.15-0.04-0.15-0.13c-0.15,0.08-0.34,0.13-0.55,0.13v0.29c0,0.21,0.04,0.39,0.13,0.55
		c0,0.84-0.42,1.26-1.26,1.26v0.15l0.99,0.13l0.57-0.13c0.36,0,0.64,0.7,0.84,2.1c0.28,0.21,0.42,0.53,0.42,0.97l-0.57,0.29
		c-0.5-0.1-0.92-0.15-1.26-0.15h-0.15c0,0.91,1.07,1.94,3.21,3.09c0.53,0.28,1.56,0.46,3.09,0.54c1.99-0.57,3.58-1.69,4.77-3.36
		c0.03-0.18,0.12-0.27,0.27-0.27h1.11c0.78,0,1.29-0.47,1.53-1.41l0.15-0.69v-2.37c0-0.66,0.09-1.17,0.27-1.53
		c-0.18,0-0.27-0.1-0.27-0.29v-5.88l0.15-0.69c-0.41-0.28-1.06-0.42-1.97-0.42c0,0.1-0.04,0.15-0.13,0.15c0-0.5-0.33-0.78-0.99-0.84
		v-0.84l0.84-0.57c0-0.74,0.09-1.11,0.27-1.11h2.52v-0.27c-1.26-0.1-2.19-0.15-2.79-0.15V29.1c0.03-0.18,0.12-0.27,0.27-0.27h9.51
		c0.2,0.03,0.29,0.12,0.29,0.27v9.81c0.03,0.18,0.12,0.27,0.27,0.27h2.37c0.2,0.03,0.29,0.12,0.29,0.27
		c-0.48,0.2-1.32,0.29-2.52,0.29h-0.29c0,0.84-0.27,1.26-0.82,1.26v1.11c0.46,0,0.69,0.09,0.69,0.27l-0.15,0.29l0.69,0.13h1.41
		l0.42,0.29l-0.15,0.69v10.35c0,0.21,0.05,0.39,0.15,0.55c-0.1,0.94-0.24,1.41-0.42,1.41h-1.68c-0.31,0-0.63,0.84-0.97,2.52
		c-0.64,1.78-2.23,3.69-4.77,5.73c0.18,0.03,0.27,0.12,0.27,0.27v0.15c-3.07,1.58-5.91,2.37-8.52,2.37c-0.39,0-0.76,0.05-1.11,0.15
		c-3.89,0-7.39-0.7-10.5-2.1c-0.85-0.56-1.69-0.89-2.52-0.99c-2.52-1.74-4.2-3.93-5.04-6.57l-0.27-1.39l0.27-0.15h1.55
		c0.13,0,0.27-0.14,0.42-0.42l-0.15-1.95c0.1-0.18,0.15-0.32,0.15-0.42l-0.42-0.29h-1.68c-0.2,0-0.29-0.09-0.29-0.27l0.29-0.13h0.97
		v-1.68l0.99-0.57c0-0.56,0.05-0.84,0.15-0.84l-0.15-0.99v-2.52c0-0.34,0.05-0.76,0.15-1.26c-0.1-0.11-0.15-0.43-0.15-0.97V43.5
		c0-0.08,0.05-0.13,0.15-0.13c0-0.25-0.28-0.44-0.84-0.57c-0.18,0.1-0.32,0.15-0.42,0.15v-0.15l-0.29,0.15h-0.55
		c-0.25-0.46-0.44-0.69-0.57-0.69h-0.27v-0.42l-0.15-0.71c0.56,0,0.84-0.51,0.84-1.53h2.79v-0.27c-1.39-0.1-2.32-0.15-2.79-0.15
		l-0.15-0.27V29.1C249.64,28.91,249.73,28.82,249.9,28.82z M276.46,48.68c0,0.18-0.09,0.27-0.27,0.27v0.15h0.27l0.15-0.27v-0.15
		H276.46z"/>
	<path class="st3" d="M299.75,28.68c0.14,0.11,0.32,0.18,0.53,0.2l0.42,0.04c2.01,0.19,3.31,0.55,3.93,1.08l0.81,0.08
		c0.28,0.03,1.43,0.59,3.44,1.7l1.38,0.13c0.14,0.01,0.26,0.17,0.38,0.46c-0.11,0.09-0.48,0.1-1.12,0.04
		c1.52,1.62,2.27,2.53,2.25,2.71l-0.01,0.15c-0.06,0.15-1.97,1.67-5.74,4.57l-1.92-0.19c-1.69-1.98-3.02-3.08-3.98-3.3l-0.13-0.01
		c-1.84-0.18-2.79,0.1-2.87,0.84c-0.39-0.04-0.68,0.58-0.87,1.86l0.08,0.7l1.23,0.12c0.31,0.03,0.7,0.3,1.17,0.81
		c0.63,0.19,0.93,0.4,0.91,0.64l-0.15,0.26l0.26,0.17l3.3,0.32L303,42.47l-2.76-0.27l-0.01,0.13c0,0.25,0.92,0.81,2.75,1.66
		c3.53,1.42,6.28,3.17,8.25,5.25c-0.01,0.11,0.4,0.71,1.22,1.78c-1.11-0.02-1.67,0.06-1.69,0.24c0.21,0.02,0.33,0.26,0.35,0.73
		l1.65,0.16c0.25,0.02,0.47,0.6,0.66,1.73L313.13,54l-1.38-0.13c-0.18,0.01-0.28,0.09-0.3,0.24l1.8,0.17
		c0.12,0.01,0.24,0.16,0.36,0.46l-0.03,0.27c-0.02,0.18-0.12,0.26-0.3,0.24l-1.38-0.13l-0.01,0.15c-0.05,0.47-0.07,1.26-0.08,2.35
		c-0.15,1.52-0.87,3.26-2.17,5.21c-0.18,0.01-0.28,0.09-0.3,0.25l-0.03,0.27l1.92,0.19c0.18,0.04,0.26,0.14,0.25,0.3
		c-0.11-0.01-0.76,0.53-1.95,1.63c-2.57,1.59-5.92,2.19-10.04,1.79l-0.13-0.01c-5.06-0.49-9.04-2.45-11.94-5.88
		c-2.37-0.38-3.51-1-3.43-1.85c-0.8-0.88-1.19-1.65-1.17-2.33c1.45-0.77,2.57-1.31,3.34-1.62l0.55,0.18
		c0.27-0.04,1.68-0.7,4.22-1.96l1.65,0.16c0.15,0.01,0.59,0.75,1.3,2.21l-0.03,0.27l-0.42-0.04l-0.03,0.27
		c1.43,1.53,2.92,2.37,4.48,2.52c2.42-0.16,3.72-1.19,3.91-3.1c0.03-0.29-0.14-0.96-0.5-1.99l1.38,0.13l0.01-0.13
		c-0.19-0.48-0.53-0.75-1.02-0.79l-1.38-0.13c-0.39-0.04-0.89-0.14-1.51-0.29l-0.29,0.12c-0.17-0.11-0.31-0.18-0.4-0.19l0.03-0.27
		l0.15,0.01c0.25,0.02,1.18,0.06,2.77,0.12l0.03-0.27l-3.75-1.61c-0.28-0.03-0.59-0.11-0.95-0.24c-0.16,0.08-0.35,0.11-0.56,0.09
		c-0.56-0.33-1.36-0.69-2.41-1.08l0.03-0.27l0.98,0.09l0.03-0.27c-2.74-1.33-4.53-2.94-5.38-4.82c-0.61-1.01-0.92-2.11-0.93-3.27
		l0.29-0.12l0.54,0.05c0.1,0.01,0.14,0.06,0.13,0.16c0.15-0.08,0.43-0.11,0.83-0.07l0.03-0.27l-1.78-0.17l0.03-0.27
		c0.46,0.04,0.7-0.02,0.72-0.21l-0.91-0.66c-0.11-0.38-0.23-0.57-0.37-0.58l-1.53-0.15l0.11-1.11c0.28-2.87,1.85-5.26,4.72-7.18
		l0.42,0.04c0.1,0.01,0.14,0.06,0.13,0.16l0.29-0.12l0.26,0.17c0.57-0.04,0.86-0.16,0.88-0.34l-0.28-0.17l-0.82-0.08l0.01-0.13
		c1.25-0.57,1.88-0.92,1.9-1.06c0.03-0.26,1.15-0.39,3.37-0.37l2.07,0.2C299.38,28.79,299.57,28.76,299.75,28.68z M284.87,40.3
		l0.27,0.03l-0.03,0.27l-0.27-0.03L284.87,40.3z M285.56,40.37l0.4,0.04l-0.03,0.27l-0.4-0.04L285.56,40.37z M290.52,40.85
		l-0.03,0.27l0.13,0.01l0.03-0.27L290.52,40.85z M290.91,40.88l-0.03,0.27l0.42,0.04c0.02-0.18-0.07-0.28-0.25-0.3L290.91,40.88z
		 M290.73,54.32l-0.03,0.29l0.15,0.01l0.03-0.29L290.73,54.32z M295.11,52.26l1.36,0.13l-0.04,0.42l-0.95-0.24l-0.4-0.04
		L295.11,52.26z"/>
	<path class="st3" d="M327.9,28.76c0.1,0,0.15,0.05,0.15,0.15l0.54-0.15c4.45,0,8.25,1.06,11.4,3.19c3.33,0,5,0.37,5,1.11
		c2.09,1.68,3.7,3.49,4.85,5.42v0.84l-5.14,2.62c-0.95,0.56-1.64,0.84-2.08,0.84h-1.38c-2.09-2.91-3.98-4.58-5.69-5
		c-0.56-0.27-1.44-0.59-2.65-0.97c-1.64,0-3.53,0.55-5.69,1.66v0.15c1.02,0,1.53,0.09,1.53,0.27c-2.51,2.25-3.76,4.01-3.76,5.27
		c-0.29,0.35-0.57,1.27-0.82,2.77h-2.79c-0.18,0.03-0.27,0.13-0.27,0.29c0,0.13,0.14,0.26,0.42,0.4h2.35c0.14,0,0.37,1.16,0.69,3.48
		c0.48,1.88,1.45,3.54,2.92,5l-0.27,0.13h-1.53v0.29c1.23,1.2,3.27,2.13,6.11,2.77c1.05,0,2.58-0.42,4.6-1.26
		c1.86,0,3.3-0.6,4.3-1.81h0.13v-0.27h-1.39v-0.13c0.35-0.63,0.95-1.46,1.81-2.5h1.66c0.2,0,1.82,0.83,4.87,2.5
		c1.95,0,3.29,0.41,4.03,1.24v0.15c-0.38,0.41-0.57,0.64-0.57,0.69l-0.97-0.15c-0.6,0-1.43,0.92-2.5,2.77
		c-0.41,0.2-1.15,0.29-2.23,0.29h-0.27c-0.14,0-0.28,0.13-0.42,0.4h1.8v0.42c-2.95,2.74-5.45,4.28-7.5,4.6
		c-1.47,0.73-3.14,1.09-5,1.09h-2.92c-5.05,0-9.55-1.8-13.48-5.4c-0.39-0.48-1.08-0.71-2.08-0.71c-0.32,0.1-0.5,0.15-0.55,0.15
		c-0.38-0.14-0.57-0.28-0.57-0.42c0.03-0.18,0.13-0.27,0.29-0.27c0.1,0,0.23,0.05,0.4,0.15l0.84-0.15h0.27v-0.15
		c-1.67-2.28-2.5-3.67-2.5-4.16v-0.15h1.39l0.69-0.13c-1.08-2.46-1.68-4.96-1.81-7.5h-1.78V48.2h1.51c0.18,0,0.27-0.09,0.27-0.27
		c0-0.2-0.09-0.29-0.27-0.29h-2.5c-0.18,0-0.27-0.09-0.27-0.27v-0.42c0.42,0,0.7-0.04,0.84-0.13l0.27,0.13
		c1.39,0,2.08-0.18,2.08-0.55c0.18-2.62,0.92-5.07,2.23-7.37V38.9c0-0.18-0.09-0.27-0.27-0.27h-1.38l-0.29-0.15
		c1.67-2.94,3.56-4.98,5.69-6.11c0-0.18-0.09-0.27-0.27-0.27h-2.77v-0.15c1.08-0.97,3.02-1.85,5.84-2.65c1.5-0.27,2.84-0.4,4.03-0.4
		h0.27C327.57,28.91,327.75,28.86,327.9,28.76z M318.87,48.2v0.42h0.42c0.18,0,0.27-0.1,0.27-0.29l-0.27-0.13H318.87z M333.59,55.97
		h1.26c0.18,0.03,0.27,0.12,0.27,0.27c-1.16,1.02-2,1.53-2.5,1.53h-1.11V57.5C331.86,57.5,332.56,56.99,333.59,55.97z"/>
	<path class="st3" d="M387.73,28.8h23.62c0.21,0,0.4,0.05,0.57,0.15c0.17-0.1,0.36-0.15,0.57-0.15c0.2,0.24,0.29,0.43,0.29,0.57
		l-0.15,0.29c0.1,0.49,0.29,0.87,0.57,1.13v5.37l-0.15,0.27l-0.71-0.13h-2.96l-0.86,0.13c-0.15-0.08-0.38-0.13-0.69-0.13l-0.99,0.13
		c-0.17-0.08-0.36-0.13-0.57-0.13l-0.29,0.13c-0.1,0-0.15-0.04-0.15-0.13l-0.69,0.13h-1.43v4.96c0,0.2-0.38,0.34-1.13,0.44
		c0,0.36-0.09,0.55-0.27,0.55h-1.28c-0.18,0.04-0.27,0.14-0.27,0.29c0.03,0.18,0.12,0.27,0.27,0.27h1.43l0.27,0.15l-0.15,0.71v1.28
		l0.86,0.57c0,0.18-0.57,0.32-1.7,0.42v8.34c0,0.27-0.48,0.46-1.43,0.57v0.15h2.14c0.56,0.25,0.84,0.44,0.84,0.57v11.19
		c0,0.18-0.09,0.27-0.27,0.27h-5.67c-0.95,0-2.37-0.05-4.24-0.15c-0.1-1.74-0.15-3.01-0.15-3.82v-7.64
		c-0.85-0.18-1.28-0.37-1.28-0.57l-0.27,0.15h-1.28v-0.15c0.03-0.18,0.13-0.27,0.29-0.27l0.69,0.15c0.18-0.1,0.33-0.15,0.44-0.15
		v-8.5c0.03-0.18,0.12-0.27,0.27-0.27h1.28v-0.57c-0.48,0-0.71-0.09-0.71-0.27v-1.85c0-0.2-0.1-0.29-0.29-0.29h-1.26
		c-0.2,0-0.29-0.09-0.29-0.27c0.03-0.2,0.13-0.29,0.29-0.29h1.26l0.57-0.69h0.71l0.15-1.28c0-0.18-0.05-0.27-0.15-0.27l0.15-0.71
		v-2.27c0-0.41-0.19-0.69-0.57-0.84c-0.1,0-0.15,0.04-0.15,0.13l-0.71-0.13h-8.19c-0.2,0-0.29-0.1-0.29-0.29v-5.37
		c-0.38,0-0.57-0.09-0.57-0.27v-0.15c0-0.21,0.05-0.4,0.15-0.57c-0.1-0.17-0.15-0.36-0.15-0.57c0.1,0,0.15-0.05,0.15-0.15
		C385.22,28.85,386.73,28.8,387.73,28.8z M388.99,42.39h0.29c0.18,0.04,0.27,0.14,0.27,0.29c0,0.18-0.09,0.27-0.27,0.27h-0.29
		c-0.18,0-0.27-0.09-0.27-0.27C388.74,42.48,388.83,42.39,388.99,42.39z M392.95,53.58v0.27h0.15v-0.27H392.95z"/>
	<path class="st3" d="M428.33,28.76c3.42,0.28,5.12,0.65,5.12,1.11c-0.14,0.08-0.41,0.13-0.82,0.13c3.12,2.31,4.92,4.35,5.4,6.11
		c0.74,1.05,1.34,2.76,1.8,5.12c0.1,1.11,0.37,1.66,0.82,1.66c0.74,0,1.11,0.27,1.11,0.82v0.97c0,0.2-0.09,0.29-0.27,0.29
		c-0.38,0-0.57-0.05-0.57-0.15l-0.96,0.15h-1.39v0.27l0.97,0.13c0.21,0,0.4-0.04,0.57-0.13c1.01,0.11,1.51,0.25,1.51,0.42
		c0.18-0.1,0.32-0.15,0.42-0.15l0.27,0.15c0.17-0.1,0.36-0.15,0.57-0.15c0.13,0,0.27,0.14,0.42,0.42v0.13
		c0,0.14-0.14,0.28-0.42,0.42h-1.39v2.77c-0.39,4.59-0.9,7.27-1.53,8.04h-2.62v0.4c0.56,0,0.84,0.19,0.84,0.57
		c0.36,0,0.55,0.14,0.55,0.42c-1.48,3.61-3.7,6.1-6.66,7.47c-1.4,0.73-3.34,1.09-5.82,1.09h-0.13c-5.42,0-9.15-1.52-11.21-4.56
		c-0.91-0.83-1.74-2.26-2.5-4.3c-0.28,0-0.74-0.23-1.39-0.69c-0.56,0-0.84-0.09-0.84-0.27l0.29-0.13h0.96l0.97-0.15v0.15
		c0.18-0.1,0.32-0.15,0.42-0.15c-0.84-3.09-1.26-5.4-1.26-6.93c0.56-0.11,0.84-0.25,0.84-0.42v-0.82c-0.1-0.28-0.38-0.42-0.84-0.42
		v-1.93c0.03-0.18,0.12-0.27,0.27-0.27h1.11c0.1,0,0.15,0.04,0.15,0.13c0.18-0.08,0.32-0.13,0.42-0.13v-0.42
		c0-0.18-0.1-0.27-0.29-0.27h-1.39l-0.4-0.29h-2.22c-0.18,0-0.27-0.09-0.27-0.27v-0.13c0.42,0,0.7-0.05,0.84-0.15l0.27,0.15
		l0.27-0.15c0.1,0,0.15,0.05,0.15,0.15c1.19,0,1.78-0.23,1.78-0.69c0.1-0.35,0.15-0.77,0.15-1.26v-0.13h-1.11
		c-0.18,0-0.27-0.1-0.27-0.29c0.36-1.75,0.83-3.5,1.39-5.25l1.66-3.19c2.25-2.86,4.37-4.28,6.36-4.28
		C423.14,29.13,425.77,28.76,428.33,28.76z M420.86,42.89h0.97c0.14,0,0.28,0.13,0.42,0.4c-0.07,1.12-0.25,1.68-0.55,1.68h-0.96
		c-0.21,0-0.4-0.05-0.57-0.15c-0.92,0.1-1.39,0.24-1.39,0.42c0.56,0,0.84,0.09,0.84,0.27c0.36-0.07,0.55-0.16,0.55-0.27
		c1.2,0.11,1.81,0.25,1.81,0.42l0.27-0.15h0.69c0.14,0,0.32,0.18,0.55,0.55c0,0.14-0.13,0.28-0.4,0.42h-1.39
		c-0.18,0.03-0.27,0.12-0.27,0.27v1.53c0.55,0.35,0.82,0.58,0.82,0.69v0.82c-0.46,0.28-0.69,0.51-0.69,0.69
		c0,2.66,0.46,4.83,1.39,6.51l-0.42,0.29h-2.2v0.13c0,0.18,0.46,0.32,1.38,0.42c0,0.32,0.41,0.5,1.24,0.54
		c0.84,1.11,1.76,1.66,2.77,1.66c1.22-0.27,2.09-0.82,2.62-1.66c-0.49-0.46-0.81-0.69-0.96-0.69c-0.18,0-0.27-0.09-0.27-0.27
		l0.27-0.13h1.38c0.21,0,0.39-0.05,0.55-0.15l0.29,0.15c0.97,0,1.66-2.59,2.08-7.77v-2.48c-0.1-0.34-0.15-0.52-0.15-0.57l0.27-0.13
		h1.66v-0.42c0-0.18-0.09-0.27-0.27-0.27h-1.11c-0.07,0-0.43-0.1-1.09-0.29h-1.81c-0.18,0-0.27-0.09-0.27-0.27l0.13-0.27
		c0.21,0,0.4,0.05,0.57,0.15c0.78-0.1,1.43-0.15,1.93-0.15h0.42V44.4c0-1.01-0.23-1.51-0.69-1.51c-0.84,0-1.26-0.65-1.26-1.95
		c-0.78-2.42-1.8-3.94-3.04-4.56c-0.78-0.28-1.2-0.42-1.24-0.42C423.37,35.96,421.75,38.27,420.86,42.89z M426.4,57.84l0.15,0.27
		l-0.29,0.15h-0.13v-0.15C426.16,57.93,426.25,57.84,426.4,57.84z M428.21,44.97l0.12,0.27l-0.27,0.13l-0.13-0.27L428.21,44.97z
		 M428.48,36.51v0.15h0.27v-0.15H428.48z"/>
	<path class="st3" d="M444.52,28.76c0.18,0,0.27,0.05,0.27,0.15c1.43-0.1,2.48-0.15,3.15-0.15h9.95c3.61,0,6.03,0.33,7.26,0.99
		c0.85,0.25,1.38,0.54,1.57,0.86c-0.1,0.17-0.15,0.36-0.15,0.57c1.48,0.71,2.76,2.28,3.84,4.7c0.67,2.02,1.01,3.53,1.01,4.56
		c0,0.35-0.14,1.49-0.42,3.42c0.56,0,0.84,0.1,0.84,0.29c-1.08,2.95-2.79,5.14-5.12,6.55l-2.14,0.84v0.15
		c0.22,0.21,0.75,0.97,1.57,2.29c-0.31,0.18-0.55,0.27-0.71,0.27l0.15,0.29v0.15c-1.72,0.08-2.86,0.13-3.42,0.13v0.15
		c0.03,0.2,0.13,0.29,0.29,0.29h3.55l1.28,1.55c0.94,0,1.55,0.48,1.85,1.43v0.15c-0.48,0-0.71,0.1-0.71,0.29
		c2.95,4.24,4.43,6.42,4.43,6.55c-0.38,0.07-0.57,0.16-0.57,0.27c0.66,0.99,0.99,1.57,0.99,1.72l-0.27,0.13h-7.14
		c-0.8,0-2.08-0.04-3.84-0.13c-0.76-1.08-1.13-1.65-1.13-1.72c0.15-0.1,0.39-0.15,0.71-0.15v-0.12c-2.76-4.19-4.14-6.47-4.14-6.85
		h0.57v-0.29c-0.29-0.94-0.86-1.41-1.7-1.41c-0.74-0.95-1.32-1.43-1.72-1.43h-2.56v0.71c0,0.08-0.04,0.13-0.13,0.13l0.13,0.29v6.55
		h1.57c0.2,0.03,0.29,0.13,0.29,0.29c0,0.18-0.1,0.27-0.29,0.27h-1.57c0,0.48-0.04,0.71-0.13,0.71l0.13,0.29v1.7
		c0,0.21-0.04,0.4-0.13,0.57c0.08,0.18,0.13,0.33,0.13,0.44l-0.27,0.13h-5.84c-0.95,0-2.38-0.04-4.28-0.13V63.8
		c0.03-0.2,0.12-0.29,0.29-0.29h1.55v-0.42h-1.55c-0.2,0-0.29-0.1-0.29-0.29V55.4l-0.71-0.15h-2.83c-0.2,0-0.29-0.1-0.29-0.29
		l0.29-0.15c2.37-0.04,3.55-0.13,3.55-0.27c0-0.29,0.1-0.44,0.29-0.44c0.18,0.1,0.32,0.15,0.42,0.15l0.15-0.27v-9.7
		c0.03-0.18,0.12-0.27,0.27-0.27h0.71l0.15-0.86c-0.18-0.1-0.32-0.15-0.42-0.15c-0.84,0.1-1.32,0.15-1.43,0.15
		c0-0.76-0.38-1.13-1.13-1.13v-0.71l0.99-0.57v-9.55l0.86-0.57v-1.43c0.03-0.18,0.12-0.27,0.27-0.27h1.01
		C444.13,28.91,444.37,28.86,444.52,28.76z M443.95,43.14v0.15h0.27v-0.15H443.95z M444.67,43.14v0.15h0.27v-0.15H444.67z
		 M448.22,54.82v0.15c0.03,0.2,0.12,0.29,0.29,0.29h2.56c0.18,0,0.27-0.1,0.27-0.29v-0.15H448.22z M452.06,36.32
		c0,0.08-0.04,0.13-0.13,0.13c0.08,0.95,0.13,1.67,0.13,2.14v0.86c0,0.1-0.04,0.15-0.13,0.15l0.13,0.27v0.15
		c0,0.85-0.38,1.28-1.13,1.28v0.86c0.76,0.06,1.13,0.2,1.13,0.42h-0.13c0.08,0.18,0.13,0.32,0.13,0.42h3.42v0.29h-1.28L453.63,44
		h-0.71v1.43h4.41c1.92,0,3.21-0.48,3.86-1.43c0.94,0,1.41-0.34,1.41-1.01h-1.28l-0.27-0.13c0.18-0.66,0.27-1.23,0.27-1.72v-1.13
		c0-0.99-0.85-2.09-2.56-3.28c-0.21-0.2-1.15-0.34-2.83-0.42l-0.29,0.13l-0.29-0.13c-0.08,0-0.13,0.04-0.13,0.13
		c-0.34-0.08-0.53-0.13-0.59-0.13c-0.83,0.08-1.29,0.13-1.41,0.13C452.68,36.36,452.3,36.32,452.06,36.32z M452.5,54.25l-0.29-0.15
		c0,0.2-0.09,0.29-0.27,0.29c0.08,0.18,0.13,0.32,0.13,0.42c0.95-0.08,1.67-0.13,2.14-0.13h0.15l0.27,0.13l0.59-0.99
		c-0.38-0.85-0.62-1.28-0.71-1.28h-1.28c-0.2,0-0.34,0.57-0.44,1.7H452.5z M459.62,65.5h0.27c0,0.15,0.1,0.34,0.29,0.57v0.29
		c-0.12-0.01-0.31-0.25-0.57-0.71V65.5z M460.6,66.93h0.15v0.29h-0.15V66.93z M471.58,42.99H472v0.29h-0.42V42.99z M472.57,42.99
		h0.44v0.29h-0.44V42.99z M473.29,42.99h1.28v0.29h-1.28V42.99z"/>
</g>
<path class="st4" d="M299.51,55.21"/>
<path class="st3" d="M300.83,71.22h-2.64l-1.45,0.09l0.07-0.18l0.86-0.11l0.52-0.12v-1.24l0.23-1.79l-0.42-9.29l0.19-1.8l-2.41-0.35
	l0.25-0.53l1.55,0.09l0.61-0.36V39.28l-0.99-0.01v-0.22l0.99-0.01v-2.06v-9.64l-0.77-0.08c0.05-0.05,0.05-0.1,0-0.16l-0.09-0.02
	l-0.15,0.13l-0.15,0c0,0-0.12-0.21-0.08-0.25c0.02-0.02,0.84,0.07,0.85,0.07c0.02,0.01,0.01,0.06,0.02,0.06
	c0.02,0.01,0.05,0.01,0.07,0.01c0.01,0,0.03-0.05,0.05-0.05c0.16,0,0.27,0.03,0.27,0.03l-0.08-1.58l0.08-0.99h2.64v0.4l-1.05,0.01
	l-0.79,0.21l-0.2,0.16l1.72,0.05l0.32,0.07l0.08,2.73l-0.08,9.32l-0.6,0.33l-0.86,0.06l-0.45,0.31l1.19,0.13l0.72-0.11l0.2,1.37
	l-0.4,1.76l-0.15,14.84l0.35,12.28c-0.11-0.01-0.26,0.13-0.37,0.13c-0.08,0-0.1-0.01-0.18,0c-0.04,0.01,0.04-0.08-0.01-0.1
	c-0.05-0.02-0.23,0.02-0.27,0.04l-0.13,0.17c0.39,0.04,0.73,0.11,0.97,0.24V71.22z"/>
<polygon points="299.35,27.91 299.18,27.95 298.83,27.91 298.87,27.8 298.79,27.7 299.15,27.66 299.24,27.71 299.42,27.8 "/>
<g>
	<path class="st3" d="M350.02,65.66c0.05-0.57-1.41-1.91-2.1-1.68c-0.33,0.11-0.28-0.63-0.41-0.99c-0.18-0.49,0.64-1.6,0.5-2.29
		c-0.41-1.93-1.21-7.15-1.17-8.46l1.49,0.13c0,0-0.78-3.6-0.56-5.91c0.03-0.33-2.86-0.02-2.81-0.28c0.07-0.35,0-0.37,0.13-0.76
		c0.09-0.26,3.06-0.17,3.16-0.43c0.69-1.81,1.89-4.28,1.89-4.28s1.44-3.87,2.66-5.36c0.51-0.63,0.48-0.66,1.06-1.21
		c0.48-0.46,0.76-0.94,1.68-1.54c0.4-0.27-0.37-0.85-0.37-0.85s1.21-1.5,1.58-1.6c0.95-0.27,4.71-0.23,5.78-0.54
		c0.96-0.28,2.8-1.45,2.8-1.45c1.1,0,2.2,0.14,3.38,0.14c0.8,0,1.59,0.04,2.36,0.12c0.94,0.1,1.86,0.26,2.76,0.48
		c0.82,0.2,1.61,0.45,2.38,0.76s1.51,0.66,2.22,1.07c0.43,0.25-0.18,1.21-0.18,1.21l0.83,1.81l3.24,0.04c1.17,1.23,2.26,2.62,3,4.31
		c0.69,1.59,0.88,3.25,1.94,5.6c0.87,1.94,0.69,4.37,0.69,6.89c0,2.21-0.19,4.3-0.58,6.27c-0.07,0.37-0.31,1.25-0.39,1.59
		l-1.29,0.29l-0.6,0.42l0.16,0.31c0.47,0.02,1.44-0.06,1.42,0c-0.28,0.73-0.78,1.91-1.15,2.55c-0.86,1.48-1.98,2.65-3.37,3.51
		c-1.39,0.86-3.08,1.29-5.08,1.29c-0.89,0-1.65-0.12-2.28-0.36c-0.63-0.24-1.15-0.57-1.55-1c-0.41-0.43-0.43-0.93-0.64-1.51
		c-0.2-0.58-0.24-1.21-0.28-1.91c-0.22,0.85-0.87,1.58-1.25,2.18c-0.38,0.6-0.81,1.09-1.3,1.47s-1.02,0.66-1.61,0.84
		c-0.59,0.18-1.19,0.27-1.82,0.27c-1.24,0-2.38-0.28-3.42-0.85c-1.03-0.57-2.2-2.6-2.2-2.6s-1.79-2.06-2.2-3.51
		c-0.13-0.45-0.32-0.69-0.32-1.17c0-0.19,1.57-0.09,1.58-0.17c0,0-0.07-0.23-0.22-0.37l-0.74-0.18l-0.8,0.03
		c-0.06-0.63-0.12-2.24-0.12-2.91c0-1.93,0.22-3.7,0.67-5.31c0.45-1.61,1.15-3,2.1-4.16c0.56-0.68,1.86-1.46,1.81-2.16
		c-0.15-0.3-0.98-0.47-0.98-0.73s6.2-1.71,8.21-0.8c0.36,0.16,0.89,0.02,1.5,0.07c0.61,0.05,1.23,0.11,1.87,0.2
		c0.64,0.09,1.23,0.18,1.79,0.27c0.56,0.09,0.99,0.19,1.29,0.28l-0.01,6.3l-1.1,0.24l-1.36-0.26l-1.84,0.25
		c-0.09,0.02-0.16,0.07-0.23,0.13c0.26,0.1,0.74,0.13,1.28,0.15l3.24-0.03l-0.27,7.06c0,0.38,0.25,1.1,0.25,1.1
		c-0.01,0.36-0.01,0.7-0.01,1.03c0,0.63,0.02,1.21,0.05,1.74c0.03,0.53,0.11,0.98,0.22,1.36c0.11,0.38,0.28,0.67,0.5,0.88
		c0.22,0.21,0.51,0.31,0.89,0.31c0.61,0,1.14-0.17,1.6-0.51c0.46-0.34,0.86-0.81,1.21-1.4c0.47-0.8-0.37-1.22-0.37-1.22
		c-0.02-0.28-0.23-0.67-0.09-0.92c0,0,1.2,0.13,1.42-0.22c0,0,0.37-1.79,0.46-2.33c0.14-0.93,0.24-1.88,0.3-2.88
		c0.06-0.92,0.09-1.84,0.09-2.75c0-0.04,0.9-0.32,0.9-0.32s0.89,0.13,0.98,0.1c0,0,0.67-0.72,0.67-0.85c0-0.13-0.97,0.23-0.97,0.23
		l-0.77,0.11c0,0-0.83-0.01-0.84-0.08c-0.13-2.76-0.52-7.01-0.52-7.01s-2.19-3.83-3.44-5.29c-0.19-0.22-1.6,0.05-1.84-0.2
		c-0.12-0.13-0.25-0.26-0.37-0.38c0,0,1.36-0.49,1.24-0.61c-1.19-1.17-2.86-2.54-2.86-2.54s-4.01-0.67-5.93-0.67
		c-1.21,0-2.36,0.12-3.46,0.36c-0.57,0.12-1.96-0.11-3.13-0.4c-0.56-0.14-2.64,0.57-2.77,0.85c-0.14,0.31,1.96,1.07,1.62,1.27
		c-1.54,0.93-2.87,2.12-4.01,3.55c-1.39,1.75-3.78,5.76-3.78,5.76s-0.07,1.41-0.15,2.36c-0.01,0.13-1.39,0.07-1.4,0.21
		c-0.02,0.26-0.51,0.09-0.54,0.38c-0.01,0.14,1.81-0.21,1.79-0.06c-0.12,1.55,1.2,5.53,1.2,6.77c0,0.13-1.13-0.26-1.13-0.13
		c0.02,1.3-0.19,1.31-0.01,2.67c0.2,1.49,0.52,2.93,0.97,4.33c0.41,1.27,0.94,2.61,1.59,3.75l-0.17,0.26L350.02,65.66z
		 M371.08,46.51c-0.35-0.22-0.57-0.58-0.99-0.73c-0.43-0.15-1.14,0.48-1.68,0.26c-0.77-0.32-2.98-0.43-2.98-0.43
		c0.23,0.61-0.46,1.5-0.97,2.18c-0.51,0.69-0.92,1.55-1.23,2.58c-0.3,1.04-0.46,2.23-0.46,3.59c0,1.17,0.1,2.29,0.31,3.35
		c0.21,1.07,0.8,3.2,0.8,3.2l0.71,0.91l-0.52,0.64c-0.1,0.09,0.97,0.59,1.19,0.55c0.25-0.03,0.78,0.01,0.99,0.09
		c0.27,0.1,0.54,0.15,0.83,0.15c0.66,0,1.24-0.22,1.74-0.65c0.5-0.43,0.92-0.97,1.26-1.6c0.34-0.63,0.59-1.31,0.75-2.04
		c0.16-0.73,0.24-1.39,0.24-1.99V46.51z"/>
	<path class="st3" d="M371.3,50.41c-0.15,0.04-0.48-0.07-0.48-0.07c-0.23,0.09-0.5,0.15-0.8,0.19l-0.58-0.07c0,0-0.18-0.1-0.18-0.15
		s0.24-0.15,0.32-0.15c0.08,0,0.4,0.1,0.4,0.1l0.8-0.1c0,0,0.76-0.04,0.8,0s0,0.15,0,0.15S371.45,50.37,371.3,50.41z"/>
</g>
<path class="st3" d="M367.46,60.62l0.92,0.04c0.18,0.03-0.29,0.25-0.29,0.41c-0.68,0.68-1.16,0.87-1.59,0.94l-0.85-0.16l0.45-0.27
	C366.45,61.58,366.42,61.64,367.46,60.62z"/>
<polygon points="383.7,59.92 384.08,60.05 383.97,60.3 383.2,60.49 382.91,60.43 383.27,60.02 "/>
<g>
	<path d="M11.36,68.64c0.52,0.11,0.86,0.63,0.84,1.29c-0.03,0.87-0.57,1.36-1.47,1.34l-0.48-0.01c-0.84-0.02-1.37-0.58-1.35-1.39
		c0.02-0.83,0.59-1.3,1.51-1.27l0.31,0.01l-0.06,2.16l0.13,0c0.58,0.02,0.97-0.32,0.98-0.86c0.01-0.4-0.15-0.7-0.42-0.8L11.36,68.64
		z M10.28,70.76l0.05-1.67c-0.61-0.02-0.98,0.28-1,0.79C9.32,70.41,9.67,70.74,10.28,70.76z"/>
	<path d="M9.85,67.05L8,67l0.02-0.52l1.85,0.06L9.85,67.05z M9.89,65.91l-1.85-0.06l0.02-0.53l1.85,0.06L9.89,65.91z"/>
	<path d="M9.96,63.35l-1.85-0.06l0.02-0.52l1.85,0.06L9.96,63.35z M10,62.21l-1.85-0.06l0.02-0.53l1.85,0.06L10,62.21z"/>
	<path d="M9.27,59.69l2.67-0.81l0-0.04l-2.62-0.96l0.02-0.53l3.14,1.25l-0.02,0.55l-3.21,1.07L9.27,59.69z"/>
	<path d="M13.01,54.4l-5.09,1.91l0.01-0.49l5.09-1.91L13.01,54.4z"/>
	<path d="M11.75,52.77c-0.56-0.02-0.88-0.43-0.9-1.16l-0.02-0.87l-0.29-0.01c-0.4-0.01-0.63,0.22-0.64,0.67
		c-0.01,0.37,0.14,0.63,0.41,0.72l-0.01,0.49c-0.51-0.07-0.84-0.58-0.82-1.23c0.02-0.75,0.42-1.16,1.08-1.14l2.18,0.06l-0.01,0.47
		l-0.48-0.01l0,0.05c0.34,0.16,0.52,0.51,0.5,0.98C12.72,52.4,12.33,52.79,11.75,52.77z M11.59,50.77l-0.37-0.01l0.01,0.82
		c0.01,0.45,0.19,0.69,0.52,0.7c0.33,0.01,0.55-0.23,0.56-0.63C12.32,51.15,12.01,50.78,11.59,50.77z"/>
	<path d="M10.41,48.52l-1.85-0.06l0.02-0.52L10.42,48L10.41,48.52z M10.44,47.38l-1.85-0.06L8.6,46.8l1.85,0.06L10.44,47.38z"/>
	<path d="M10.52,44.81l-1.85-0.06l0.02-0.52l1.85,0.06L10.52,44.81z M10.55,43.67L8.7,43.62l0.02-0.53l1.85,0.06L10.55,43.67z"/>
	<path d="M13.45,39.57l-5.09,1.91l0.01-0.49l5.09-1.91L13.45,39.57z"/>
	<path d="M13.1,37.88l-0.41-0.01l0.03-1.09l-3.6-0.11l-0.03,1.08l-0.41-0.01l0.05-1.58l4.01,0.12l0.03-1.05l0.41,0.01L13.1,37.88z"
		/>
	<path d="M10.85,33.69L9,33.63l0.02-0.52l1.85,0.06L10.85,33.69z M10.88,32.55l-1.85-0.06l0.02-0.53l1.85,0.06L10.88,32.55z"/>
	<path d="M17.07,73.03c-0.37,0.05-0.62,0.35-0.63,0.76c-0.02,0.55,0.35,0.87,1.03,0.89l0.29,0.01c0.68,0.02,1.07-0.28,1.08-0.83
		c0.01-0.41-0.21-0.73-0.57-0.8l0.01-0.49c0.64,0.1,1.03,0.59,1,1.3c-0.03,0.86-0.57,1.35-1.48,1.32l-0.42-0.01
		c-0.91-0.03-1.43-0.55-1.4-1.41c0.02-0.7,0.43-1.17,1.09-1.23L17.07,73.03z"/>
	<path d="M17.02,69.83c0.23-0.83,0.59-1.17,1.22-1.15c0.7,0.02,1.15,0.53,1.19,1.32l0.33,0.01l-0.01,0.35l-0.33-0.01
		c-0.08,0.77-0.55,1.26-1.24,1.29l0.01-0.47c0.42-0.03,0.72-0.35,0.79-0.83l-1.6-0.05l-0.02,0.06c-0.22,0.79-0.6,1.14-1.21,1.12
		c-0.66-0.02-1.1-0.51-1.14-1.25l-0.33-0.01l0.01-0.35l0.33,0.01c0.08-0.7,0.54-1.16,1.18-1.17l-0.01,0.46
		c-0.39,0.04-0.67,0.31-0.73,0.72l1.52,0.05L17.02,69.83z M15.46,70.23c0.04,0.46,0.3,0.75,0.7,0.76c0.36,0.01,0.57-0.19,0.73-0.72
		L15.46,70.23z M19,69.99c-0.04-0.48-0.33-0.81-0.74-0.83c-0.38-0.01-0.61,0.22-0.77,0.78L19,69.99z"/>
	<path d="M19.87,65.78c-0.02,0.71-0.25,0.93-0.98,0.91l-0.66-0.02c-0.45-0.01-0.72,0.24-0.67,0.93l-0.53-0.02
		c0.09-0.68-0.16-0.95-0.62-0.97l-0.66-0.02c-0.72-0.02-0.94-0.25-0.92-0.97l0.01-0.4l0.4,0.01l-0.01,0.32
		c-0.01,0.44,0.09,0.53,0.6,0.54l0.78,0.02c0.41,0.01,0.67,0.33,0.67,0.92l0.05,0c0.03-0.59,0.31-0.89,0.72-0.88l0.78,0.02
		c0.51,0.02,0.61-0.07,0.63-0.51l0.01-0.32l0.4,0.01L19.87,65.78z"/>
	<path d="M17.7,62.39l0.7-1.2l0.37,0.22L18,62.58l1.4,0.01l-0.01,0.42l-1.4-0.08l0.7,1.22l-0.38,0.2l-0.63-1.24l-0.7,1.2l-0.37-0.22
		l0.77-1.18l-1.4-0.01l0.01-0.42l1.4,0.08l-0.7-1.22l0.38-0.2L17.7,62.39z"/>
	<path d="M18,60.49c-0.01,0-0.05,0-0.07,0c-0.57-0.02-0.94-0.36-0.93-0.85c0.01-0.28,0.12-0.49,0.39-0.74
		c0.22-0.2,0.3-0.32,0.3-0.46c0.01-0.23-0.17-0.37-0.51-0.4l0.01-0.46l0.06,0c0.58,0.02,0.94,0.35,0.93,0.85
		c-0.01,0.29-0.12,0.49-0.39,0.74c-0.22,0.2-0.3,0.31-0.3,0.45c-0.01,0.24,0.16,0.38,0.51,0.41L18,60.49z"/>
	<path d="M20.15,56.54l-0.4-0.01l0.01-0.32c0.01-0.44-0.09-0.53-0.6-0.54l-0.78-0.02c-0.41-0.01-0.67-0.33-0.67-0.92l-0.05,0
		c-0.03,0.59-0.31,0.89-0.72,0.88l-0.78-0.02c-0.51-0.02-0.61,0.07-0.63,0.51l-0.01,0.32l-0.4-0.01l0.01-0.4
		c0.02-0.71,0.25-0.93,0.98-0.91l0.66,0.02c0.45,0.01,0.72-0.24,0.67-0.93l0.53,0.02c-0.09,0.68,0.17,0.95,0.62,0.97l0.66,0.02
		c0.72,0.02,0.94,0.25,0.92,0.97L20.15,56.54z"/>
	<path d="M19.93,50.38l-0.01,0.48l-0.56-0.02l0,0.04c0.39,0.18,0.6,0.55,0.59,1.03c-0.02,0.69-0.44,1.05-1.21,1.03l-2.06-0.06
		l0.01-0.5l1.94,0.06c0.57,0.02,0.85-0.21,0.87-0.7c0.02-0.52-0.34-0.89-0.88-0.9l-1.87-0.06l0.01-0.5L19.93,50.38z"/>
	<path d="M17.6,48.73l-1.85-0.06l0.02-0.52l1.85,0.06L17.6,48.73z M17.64,47.59l-1.85-0.06l0.02-0.53l1.85,0.06L17.64,47.59z"/>
	<path d="M17.79,43.88c0.23-0.83,0.59-1.17,1.22-1.15c0.7,0.02,1.15,0.53,1.19,1.32l0.33,0.01l-0.01,0.35L20.2,44.4
		c-0.08,0.77-0.55,1.26-1.24,1.29l0.01-0.47c0.42-0.03,0.72-0.35,0.79-0.83l-1.6-0.05l-0.02,0.06c-0.22,0.79-0.6,1.14-1.21,1.12
		c-0.66-0.02-1.1-0.51-1.14-1.25l-0.33-0.01l0.01-0.35l0.33,0.01c0.08-0.7,0.54-1.16,1.18-1.17l-0.01,0.46
		c-0.39,0.04-0.67,0.31-0.73,0.72l1.52,0.05L17.79,43.88z M16.23,44.28c0.04,0.46,0.3,0.75,0.7,0.76c0.36,0.01,0.57-0.19,0.73-0.72
		L16.23,44.28z M19.77,44.04c-0.04-0.48-0.33-0.81-0.74-0.83c-0.38-0.01-0.61,0.22-0.77,0.78L19.77,44.04z"/>
	<path d="M20.65,39.83c-0.02,0.71-0.25,0.93-0.98,0.91l-0.66-0.02c-0.45-0.01-0.72,0.24-0.67,0.93l-0.53-0.02
		c0.09-0.68-0.16-0.95-0.62-0.97l-0.66-0.02c-0.72-0.02-0.94-0.25-0.92-0.97l0.01-0.4l0.4,0.01l-0.01,0.32
		c-0.01,0.44,0.09,0.53,0.6,0.54l0.78,0.02c0.41,0.01,0.67,0.33,0.67,0.92l0.05,0c0.03-0.59,0.31-0.89,0.72-0.88l0.78,0.02
		c0.51,0.02,0.61-0.07,0.63-0.51l0.01-0.32l0.4,0.01L20.65,39.83z"/>
	<path d="M18.7,38.32l-0.55-0.02c-1.43-0.04-2.17-0.61-2.14-1.63c0.03-0.97,0.69-1.5,1.84-1.47l0.88,0.03
		c0.47,0.01,0.74,0.27,0.73,0.69l-0.02,0.75c-0.01,0.22-0.15,0.35-0.36,0.35l-1.2-0.04c-0.22-0.01-0.35-0.12-0.35-0.29
		c0.01-0.17,0.15-0.28,0.37-0.27l1.22,0.04l0.01-0.48c0.01-0.27-0.1-0.37-0.39-0.38l-0.82-0.02c-1-0.03-1.52,0.35-1.54,1.12
		c-0.02,0.82,0.54,1.21,1.82,1.25l0.45,0.01c1.3,0.04,1.9-0.35,1.92-1.24c0.01-0.26-0.03-0.54-0.09-0.67l0.35,0.01
		c0.06,0.14,0.1,0.43,0.09,0.72C20.88,37.83,20.12,38.37,18.7,38.32z"/>
	<path d="M25.26,82.86c-0.56-0.02-0.88-0.43-0.9-1.16l-0.02-0.87l-0.29-0.01c-0.4-0.01-0.63,0.22-0.64,0.67
		c-0.01,0.37,0.14,0.63,0.41,0.72l-0.01,0.49c-0.51-0.07-0.84-0.58-0.82-1.23c0.02-0.75,0.42-1.16,1.08-1.14l2.18,0.06l-0.01,0.47
		l-0.48-0.01l0,0.05c0.34,0.16,0.52,0.51,0.5,0.98C26.23,82.48,25.84,82.88,25.26,82.86z M25.1,80.85l-0.37-0.01l0.01,0.82
		c0.01,0.45,0.19,0.69,0.52,0.7c0.33,0.01,0.55-0.23,0.56-0.63C25.83,81.24,25.53,80.86,25.1,80.85z"/>
	<path d="M22.05,77.7c0.02-0.71,0.48-1.2,1.1-1.18c0.43,0.01,0.76,0.22,0.99,0.63c0.21,0.36,0.37,0.48,0.68,0.49l0.19,0.01
		l-0.02,0.51l-0.27-0.01c-0.39-0.01-0.64-0.19-0.88-0.59c-0.2-0.34-0.38-0.47-0.69-0.48c-0.37-0.01-0.63,0.26-0.64,0.67
		c-0.01,0.42,0.23,0.7,0.65,0.75l-0.01,0.49C22.45,78.93,22.03,78.43,22.05,77.7z M25.94,78.3c-0.23-0.01-0.41-0.19-0.4-0.41
		s0.2-0.4,0.43-0.39s0.41,0.19,0.4,0.41C26.36,78.13,26.17,78.31,25.94,78.3z"/>
	<path d="M25.33,75.47l0.02-0.51c0.39,0,0.66-0.29,0.67-0.71c0.01-0.48-0.27-0.76-0.79-0.77l-2.55-0.08l-0.04,1.45l-0.46-0.01
		l0.06-1.97l3.02,0.09c0.81,0.02,1.28,0.52,1.25,1.3C26.49,75,26.01,75.49,25.33,75.47z"/>
	<path d="M24.17,70.43c-0.59-0.13-0.88-0.54-0.86-1.15c0.01-0.18,0.04-0.35,0.08-0.46l0.56,0.02c-0.06,0.14-0.1,0.35-0.1,0.52
		c-0.02,0.7,0.45,1.13,1.26,1.16l1.02,0.03l0.03-0.98l0.4,0.01l-0.06,2.11l-0.4-0.01l0.02-0.64l-2.38-0.07l-0.02,0.71l-0.4-0.01
		l0.04-1.19l0.81,0.02L24.17,70.43z"/>
	<path d="M24.03,66.66l2.6,0.7l-0.01,0.49l-4.25,0.6l0.01-0.49l1.7-0.2l1.77-0.2l0-0.03l-2.47-0.67l0.01-0.46l2.5-0.52l0-0.03
		l-1.75-0.31l-1.69-0.31l0.01-0.49l4.2,0.85l-0.01,0.49l-2.64,0.55L24.03,66.66z"/>
	<path d="M26.72,64.26l-0.41-0.01l0.03-1.09l-2.35-0.07l-0.03,1.08l-0.41-0.01l0.05-1.57l2.76,0.08l0.03-1.05l0.41,0.01L26.72,64.26
		z M22.38,63.24c-0.23-0.01-0.4-0.19-0.39-0.43c0.01-0.23,0.19-0.41,0.42-0.4c0.23,0.01,0.4,0.19,0.4,0.43
		C22.8,63.08,22.61,63.25,22.38,63.24z"/>
	<path d="M24.49,59.5l-1.85-0.06l0.02-0.52l1.85,0.06L24.49,59.5z"/>
	<path d="M24.66,55.22c0.23-0.83,0.59-1.17,1.22-1.15c0.7,0.02,1.15,0.53,1.19,1.32l0.33,0.01l-0.01,0.35l-0.33-0.01
		c-0.08,0.77-0.55,1.26-1.24,1.29l0.01-0.47c0.42-0.03,0.72-0.35,0.79-0.83l-1.6-0.05L25,55.73c-0.22,0.79-0.6,1.14-1.21,1.12
		c-0.66-0.02-1.1-0.51-1.14-1.25l-0.33-0.01l0.01-0.35l0.33,0.01c0.08-0.7,0.54-1.16,1.18-1.17l-0.01,0.46
		c-0.39,0.04-0.67,0.31-0.73,0.72l1.52,0.05L24.66,55.22z M23.1,55.62c0.04,0.46,0.3,0.75,0.7,0.76c0.36,0.01,0.57-0.19,0.73-0.72
		L23.1,55.62z M26.63,55.37c-0.04-0.48-0.33-0.81-0.74-0.83c-0.38-0.01-0.61,0.22-0.77,0.78L26.63,55.37z"/>
	<path d="M27.51,51.16c-0.02,0.71-0.25,0.93-0.98,0.91l-0.66-0.02c-0.45-0.01-0.72,0.24-0.67,0.93l-0.53-0.02
		c0.09-0.68-0.16-0.95-0.62-0.97l-0.66-0.02c-0.72-0.02-0.94-0.25-0.92-0.97l0.01-0.4l0.4,0.01l-0.01,0.32
		c-0.01,0.44,0.09,0.53,0.6,0.54l0.78,0.02c0.41,0.01,0.67,0.33,0.67,0.92l0.05,0c0.03-0.59,0.31-0.89,0.72-0.88l0.78,0.02
		c0.51,0.02,0.61-0.07,0.63-0.51l0.01-0.32l0.4,0.01L27.51,51.16z"/>
	<path d="M25.56,49.66l-0.55-0.02c-1.43-0.04-2.17-0.61-2.14-1.63c0.03-0.97,0.69-1.5,1.84-1.47l0.88,0.03
		c0.47,0.01,0.74,0.27,0.73,0.69l-0.02,0.75c-0.01,0.22-0.15,0.35-0.36,0.35l-1.2-0.04c-0.22-0.01-0.35-0.12-0.35-0.29
		c0.01-0.17,0.15-0.28,0.37-0.27l1.22,0.04l0.01-0.48c0.01-0.27-0.1-0.37-0.39-0.38l-0.82-0.02c-1-0.03-1.52,0.35-1.54,1.12
		c-0.02,0.82,0.54,1.21,1.82,1.25l0.45,0.01c1.3,0.04,1.9-0.35,1.92-1.24c0.01-0.26-0.03-0.54-0.09-0.67l0.35,0.01
		c0.06,0.14,0.1,0.43,0.09,0.72C27.75,49.17,26.99,49.7,25.56,49.66z"/>
	<path d="M24.7,43.46l0.99,0.23l0.02-0.61l0.43,0.1l-0.02,0.61l1.2,0.28l-0.01,0.42l-1.2-0.28l-0.03,0.87l1.2,0.27l-0.01,0.42
		l-1.2-0.28l-0.02,0.61l-0.43-0.1l0.02-0.61l-0.99-0.22l-0.02,0.61l-0.43-0.1l0.02-0.61l-1.16-0.27l0.01-0.42l1.16,0.27l0.03-0.86
		l-1.16-0.27l0.01-0.42l1.16,0.27l0.02-0.61l0.43,0.1L24.7,43.46z M25.66,44.97l0.03-0.88l-1.01-0.23l-0.03,0.88L25.66,44.97z"/>
	<path d="M27.84,40l-0.05,1.55l-0.4-0.01l0.03-1.06l-4.23-0.13l-0.03,1.06l-0.4-0.01l0.05-1.54"/>
	<path d="M31.13,84.58c-0.37,0.05-0.62,0.35-0.63,0.76c-0.02,0.55,0.35,0.87,1.03,0.89l0.29,0.01c0.68,0.02,1.07-0.28,1.08-0.83
		c0.01-0.41-0.21-0.73-0.57-0.8l0.01-0.49c0.64,0.1,1.03,0.59,1,1.3c-0.03,0.86-0.57,1.35-1.48,1.32l-0.42-0.01
		c-0.91-0.03-1.43-0.55-1.4-1.41c0.02-0.7,0.43-1.17,1.09-1.23L31.13,84.58z"/>
	<path d="M31.08,81.38c0.23-0.83,0.59-1.17,1.22-1.15c0.7,0.02,1.15,0.53,1.19,1.32l0.33,0.01l-0.01,0.35l-0.33-0.01
		c-0.08,0.77-0.55,1.26-1.24,1.29l0.01-0.47c0.42-0.03,0.72-0.35,0.79-0.83l-1.6-0.05l-0.02,0.06c-0.22,0.79-0.6,1.14-1.21,1.12
		c-0.66-0.02-1.1-0.51-1.14-1.25l-0.33-0.01l0.01-0.35l0.33,0.01c0.08-0.7,0.54-1.16,1.18-1.17l-0.01,0.46
		c-0.39,0.04-0.67,0.31-0.73,0.72l1.52,0.05L31.08,81.38z M29.52,81.78c0.04,0.46,0.3,0.75,0.7,0.76c0.36,0.01,0.57-0.19,0.73-0.72
		L29.52,81.78z M33.06,81.54c-0.04-0.48-0.33-0.81-0.74-0.83c-0.38-0.01-0.61,0.22-0.77,0.78L33.06,81.54z"/>
	<path d="M33.94,77.33c-0.02,0.71-0.25,0.93-0.98,0.91l-0.66-0.02c-0.45-0.01-0.72,0.24-0.67,0.93l-0.53-0.02
		c0.09-0.68-0.16-0.95-0.62-0.97l-0.66-0.02c-0.72-0.02-0.94-0.25-0.92-0.97l0.01-0.4l0.4,0.01l-0.01,0.32
		c-0.01,0.44,0.09,0.53,0.6,0.54l0.78,0.02c0.41,0.01,0.67,0.33,0.67,0.92l0.05,0c0.03-0.59,0.31-0.89,0.72-0.88l0.78,0.02
		c0.51,0.02,0.61-0.07,0.63-0.51l0.01-0.32l0.4,0.01L33.94,77.33z"/>
	<path d="M31.76,73.94l0.7-1.2l0.37,0.22l-0.77,1.18l1.4,0.01l-0.01,0.42l-1.4-0.08l0.7,1.22l-0.38,0.2l-0.63-1.24l-0.7,1.2
		l-0.37-0.22l0.77-1.18l-1.4-0.01l0.01-0.42l1.4,0.08l-0.7-1.22l0.38-0.2L31.76,73.94z"/>
	<path d="M32.06,72.04c-0.01,0-0.05,0-0.07,0c-0.57-0.02-0.94-0.36-0.93-0.85c0.01-0.28,0.12-0.49,0.39-0.74
		c0.22-0.2,0.3-0.32,0.3-0.46c0.01-0.23-0.17-0.37-0.51-0.4l0.01-0.46l0.06,0c0.58,0.02,0.94,0.35,0.93,0.85
		c-0.01,0.29-0.12,0.49-0.39,0.74c-0.22,0.2-0.3,0.31-0.3,0.45c-0.01,0.24,0.16,0.38,0.51,0.41L32.06,72.04z"/>
	<path d="M32.17,68.33c-0.01,0-0.05,0-0.07,0c-0.57-0.02-0.94-0.36-0.93-0.85c0.01-0.28,0.12-0.49,0.39-0.74
		c0.22-0.2,0.3-0.32,0.3-0.46c0.01-0.23-0.17-0.37-0.51-0.4l0.01-0.46l0.06,0c0.58,0.02,0.94,0.35,0.93,0.85
		c-0.01,0.29-0.12,0.49-0.39,0.74c-0.22,0.2-0.3,0.31-0.3,0.45c-0.01,0.24,0.16,0.38,0.51,0.41L32.17,68.33z"/>
	<path d="M34.32,64.38l-0.4-0.01l0.01-0.32c0.01-0.44-0.09-0.53-0.6-0.54l-0.78-0.02c-0.41-0.01-0.67-0.33-0.67-0.92l-0.05,0
		c-0.03,0.59-0.31,0.89-0.72,0.88l-0.78-0.02c-0.51-0.02-0.61,0.07-0.63,0.51l-0.01,0.32l-0.4-0.01l0.01-0.4
		c0.02-0.71,0.25-0.93,0.98-0.91l0.66,0.02c0.45,0.01,0.72-0.24,0.67-0.93l0.53,0.02c-0.09,0.68,0.17,0.95,0.62,0.97l0.66,0.02
		c0.72,0.02,0.94,0.25,0.92,0.97L34.32,64.38z"/>
	<path d="M34.1,58.22l-0.01,0.48l-0.56-0.02l0,0.04c0.39,0.18,0.6,0.55,0.59,1.03c-0.02,0.69-0.44,1.05-1.21,1.03l-2.06-0.06
		l0.01-0.5l1.94,0.06c0.57,0.02,0.85-0.21,0.87-0.7c0.02-0.52-0.34-0.89-0.88-0.9l-1.87-0.06l0.01-0.5L34.1,58.22z"/>
	<path d="M31.78,56.57l-1.85-0.06L29.94,56l1.85,0.06L31.78,56.57z M31.81,55.44l-1.85-0.06l0.02-0.53l1.85,0.06L31.81,55.44z"/>
	<path d="M31.97,51.72c0.23-0.83,0.59-1.17,1.22-1.15c0.7,0.02,1.15,0.53,1.19,1.32l0.33,0.01l-0.01,0.35l-0.33-0.01
		c-0.08,0.77-0.55,1.26-1.24,1.29l0.01-0.47c0.42-0.03,0.72-0.35,0.79-0.83l-1.6-0.05l-0.02,0.06c-0.22,0.79-0.6,1.14-1.21,1.12
		c-0.66-0.02-1.1-0.51-1.14-1.25l-0.33-0.01l0.01-0.35l0.33,0.01c0.08-0.7,0.54-1.16,1.18-1.17l-0.01,0.46
		c-0.39,0.04-0.67,0.31-0.73,0.72l1.52,0.05L31.97,51.72z M30.4,52.12c0.04,0.46,0.3,0.75,0.7,0.76c0.36,0.01,0.57-0.19,0.73-0.72
		L30.4,52.12z M33.94,51.88c-0.04-0.48-0.33-0.81-0.74-0.83c-0.38-0.01-0.61,0.22-0.77,0.78L33.94,51.88z"/>
	<path d="M34.82,47.67c-0.02,0.71-0.25,0.93-0.98,0.91l-0.66-0.02c-0.45-0.01-0.72,0.24-0.67,0.93l-0.53-0.02
		c0.09-0.68-0.16-0.95-0.62-0.97l-0.66-0.02c-0.72-0.02-0.94-0.25-0.92-0.97l0.01-0.4l0.4,0.01l-0.01,0.32
		c-0.01,0.44,0.09,0.53,0.6,0.54l0.78,0.02c0.41,0.01,0.67,0.33,0.67,0.92l0.05,0c0.03-0.59,0.31-0.89,0.72-0.88l0.78,0.02
		c0.51,0.02,0.61-0.07,0.63-0.51l0.01-0.32l0.4,0.01L34.82,47.67z"/>
	<path d="M32.87,46.17l-0.55-0.02c-1.43-0.04-2.17-0.61-2.14-1.63c0.03-0.97,0.69-1.5,1.84-1.47l0.88,0.03
		c0.47,0.01,0.74,0.27,0.73,0.69l-0.02,0.75c-0.01,0.22-0.15,0.35-0.36,0.35l-1.2-0.04c-0.22-0.01-0.35-0.12-0.35-0.29
		c0.01-0.17,0.15-0.28,0.37-0.27l1.22,0.04l0.01-0.48c0.01-0.27-0.1-0.37-0.39-0.38l-0.82-0.02c-1-0.03-1.52,0.35-1.54,1.12
		c-0.02,0.82,0.54,1.21,1.82,1.25l0.45,0.01c1.3,0.04,1.9-0.35,1.92-1.24c0.01-0.26-0.03-0.54-0.09-0.67L35,43.9
		c0.06,0.14,0.1,0.43,0.09,0.72C35.06,45.68,34.3,46.21,32.87,46.17z"/>
	<path d="M40.75,90.55l-0.4-0.01l0.01-0.32c0.01-0.44-0.09-0.53-0.6-0.54l-0.78-0.02c-0.41-0.01-0.67-0.33-0.67-0.92l-0.05,0
		c-0.03,0.59-0.31,0.89-0.72,0.88l-0.78-0.02c-0.51-0.02-0.61,0.07-0.63,0.51l0.19,0.12l-0.35-0.14L35.73,90
		c0.02-0.71,0.25-0.93,0.98-0.91l0.66,0.02c0.45,0.01,0.72-0.24,0.67-0.93l0.53,0.02c-0.09,0.68,0.17,0.95,0.62,0.97l0.66,0.02
		c0.72,0.02,0.94,0.25,0.92,0.97L40.75,90.55z"/>
	<path d="M38.09,86.45l-1.85-0.06l0.02-0.52l1.85,0.06L38.09,86.45z M38.12,85.31l-1.85-0.06l0.02-0.53l1.85,0.06L38.12,85.31z"/>
	<path d="M42.01,82.25l-6.04-0.18l0.01-0.46l6.04,0.18L42.01,82.25z"/>
	<path d="M40.76,76.74l-0.01,0.45l-2.19-0.07c-0.39-0.01-0.59,0.12-0.6,0.39c-0.01,0.28,0.23,0.46,0.63,0.47l2.14,0.06l-0.01,0.45
		l-2.2-0.07c-0.38-0.01-0.59,0.12-0.6,0.39c-0.01,0.28,0.23,0.46,0.62,0.48l2.14,0.06l-0.01,0.45l-3.18-0.09l0.01-0.45l0.45,0.01
		l0-0.05c-0.32-0.09-0.5-0.32-0.49-0.62c0.01-0.3,0.2-0.5,0.51-0.56l0-0.05c-0.3-0.09-0.49-0.35-0.48-0.67
		c0.01-0.44,0.33-0.66,0.92-0.65L40.76,76.74z"/>
	<path d="M41.24,73.79l-5.09,1.91l0.01-0.49l5.09-1.91L41.24,73.79z"/>
	<path d="M40.47,70.09c0.35,0.17,0.52,0.51,0.51,0.97c-0.02,0.74-0.57,1.2-1.38,1.18L39,72.22c-0.81-0.02-1.33-0.52-1.31-1.26
		c0.01-0.46,0.22-0.79,0.57-0.92l0-0.05l-1.74-0.05l0.02-0.51l4.42,0.13l-0.01,0.49l-0.49-0.01L40.47,70.09z M39.54,71.73
		c0.59,0.02,0.97-0.31,0.99-0.83c0.02-0.52-0.35-0.87-0.94-0.89L39.13,70c-0.59-0.02-0.97,0.31-0.99,0.83
		c-0.02,0.52,0.35,0.87,0.93,0.89L39.54,71.73z"/>
	<path d="M39.87,68.54l0.01-0.5c0.44-0.03,0.76-0.4,0.77-0.9c0.02-0.54-0.36-0.92-0.93-0.94c-0.58-0.02-0.98,0.34-1,0.88
		c-0.01,0.38,0.15,0.7,0.45,0.87l-0.01,0.49l-2.38-0.28l0.07-2.31l0.47,0.01l-0.06,1.9l1.38,0.16l0-0.05
		c-0.25-0.22-0.37-0.52-0.36-0.89c0.02-0.78,0.62-1.31,1.45-1.28c0.86,0.03,1.42,0.63,1.39,1.48C41.1,67.98,40.6,68.52,39.87,68.54z
		"/>
	<path d="M37.91,63.34c0.02-0.66,0.36-1.1,0.9-1.14l-0.01,0.48c-0.28,0.05-0.46,0.31-0.47,0.68c-0.01,0.4,0.17,0.67,0.46,0.68
		c0.24,0.01,0.39-0.15,0.49-0.55l0.12-0.44c0.16-0.61,0.44-0.89,0.9-0.87c0.59,0.02,0.95,0.52,0.93,1.27
		c-0.02,0.72-0.37,1.19-0.92,1.23l0.02-0.51c0.3-0.06,0.47-0.34,0.49-0.75c0.01-0.43-0.18-0.71-0.48-0.72
		c-0.25-0.01-0.39,0.14-0.49,0.55L39.7,63.7c-0.15,0.57-0.45,0.85-0.9,0.83C38.25,64.52,37.89,64.04,37.91,63.34z"/>
	<path d="M38.88,59.93l-1.85-0.06l0.02-0.52l1.85,0.06L38.88,59.93z"/>
	<path d="M38.99,56.22l-1.85-0.06l0.02-0.52L39,55.7L38.99,56.22z"/>
	<path d="M41.52,51.02l-0.01,0.48l-0.56-0.02l0,0.04c0.39,0.18,0.6,0.55,0.59,1.03c-0.02,0.69-0.44,1.05-1.21,1.03l-2.06-0.06
		l0.01-0.5l1.94,0.06c0.57,0.02,0.85-0.21,0.87-0.7c0.02-0.52-0.34-0.89-0.88-0.9l-1.87-0.06l0.01-0.5L41.52,51.02z"/>
	<path d="M12.19,28.31l-0.21-0.34l0.27-0.17c0.37-0.23,0.39-0.36,0.12-0.8l-0.41-0.66c-0.22-0.35-0.1-0.74,0.4-1.07l-0.02-0.04
		c-0.51,0.3-0.92,0.23-1.13-0.12l-0.41-0.66c-0.27-0.43-0.39-0.48-0.77-0.24l-0.27,0.17l-0.21-0.34l0.34-0.21
		c0.61-0.38,0.92-0.3,1.3,0.31l0.35,0.56c0.24,0.39,0.6,0.47,1.15,0.05l0.28,0.45c-0.62,0.3-0.7,0.66-0.47,1.05l0.35,0.56
		c0.38,0.62,0.31,0.93-0.3,1.3L12.19,28.31z"/>
	<path d="M14.15,23.83l-0.98-1.57l0.44-0.27l0.98,1.57L14.15,23.83z M15.12,23.23l-0.98-1.57l0.45-0.28l0.98,1.57L15.12,23.23z"/>
	<path d="M17.3,21.88l-0.98-1.57l0.44-0.27l0.98,1.57L17.3,21.88z M18.27,21.28l-0.98-1.57l0.45-0.28L18.72,21L18.27,21.28z"/>
	<path d="M21.45,19.36c0.82-0.27,1.3-0.15,1.63,0.38c0.37,0.59,0.19,1.26-0.44,1.72l0.17,0.28l-0.3,0.18l-0.17-0.28
		c-0.69,0.36-1.36,0.24-1.76-0.33l0.4-0.25c0.26,0.33,0.69,0.4,1.13,0.2l-0.85-1.36l-0.06,0.02c-0.78,0.25-1.28,0.13-1.6-0.39
		c-0.35-0.56-0.18-1.19,0.42-1.64l-0.17-0.28l0.3-0.18l0.17,0.28c0.63-0.32,1.26-0.19,1.63,0.34l-0.39,0.24
		c-0.25-0.31-0.62-0.38-1.01-0.21l0.8,1.29L21.45,19.36z M20.26,18.28c-0.36,0.29-0.46,0.66-0.25,1c0.19,0.31,0.48,0.37,1,0.22
		L20.26,18.28z M22.41,21.09c0.38-0.3,0.5-0.72,0.28-1.08c-0.2-0.33-0.52-0.39-1.08-0.21L22.41,21.09z"/>
	<path d="M26.41,19.5c-0.61,0.38-0.92,0.3-1.3-0.31l-0.35-0.56c-0.24-0.38-0.6-0.47-1.15-0.05l-0.28-0.45
		c0.62-0.3,0.71-0.66,0.47-1.05l-0.35-0.56c-0.38-0.62-0.31-0.93,0.3-1.3l0.34-0.21l0.21,0.34l-0.27,0.17
		c-0.37,0.23-0.39,0.36-0.12,0.8l0.41,0.66c0.22,0.35,0.1,0.74-0.4,1.07l0.02,0.04c0.51-0.3,0.92-0.23,1.13,0.11l0.41,0.66
		c0.27,0.43,0.39,0.48,0.77,0.24l0.27-0.17l0.21,0.34L26.41,19.5z"/>
	<path d="M26.58,17.05l-0.29-0.47c-0.75-1.21-0.69-2.14,0.18-2.68c0.83-0.51,1.63-0.26,2.24,0.73l0.46,0.74
		c0.25,0.4,0.19,0.77-0.17,0.99l-0.63,0.39c-0.19,0.12-0.38,0.07-0.49-0.11l-0.63-1.02c-0.12-0.19-0.09-0.36,0.05-0.45
		c0.14-0.09,0.31-0.03,0.43,0.16l0.64,1.03l0.41-0.25c0.23-0.14,0.26-0.29,0.1-0.54l-0.43-0.7c-0.53-0.85-1.13-1.07-1.79-0.67
		c-0.7,0.43-0.71,1.12-0.04,2.21l0.24,0.39c0.68,1.1,1.34,1.39,2.1,0.92c0.22-0.14,0.44-0.32,0.51-0.44l0.18,0.29
		c-0.08,0.13-0.31,0.32-0.55,0.48C28.2,18.6,27.34,18.26,26.58,17.05z"/>
	<path d="M28.66,14l-0.16-0.26c-0.29-0.46-0.2-0.92,0.21-1.18c0.42-0.26,0.87-0.13,1.16,0.33l0.16,0.26
		c0.29,0.47,0.21,0.93-0.21,1.19C29.4,14.6,28.95,14.47,28.66,14z M31.45,11.46l-1.16,5.16l-0.24-0.39l1.16-5.16L31.45,11.46z
		 M29.68,13.3l-0.1-0.16c-0.2-0.33-0.43-0.42-0.67-0.28c-0.23,0.15-0.25,0.39-0.05,0.72l0.1,0.16c0.2,0.33,0.43,0.42,0.67,0.28
		C29.86,13.88,29.88,13.63,29.68,13.3z M31.63,14.8l-0.16-0.26c-0.29-0.46-0.21-0.92,0.21-1.18c0.42-0.26,0.87-0.13,1.16,0.33
		L33,13.95c0.29,0.47,0.21,0.93-0.21,1.19C32.36,15.4,31.92,15.27,31.63,14.8z M32.64,14.1l-0.1-0.16c-0.2-0.33-0.43-0.42-0.67-0.28
		c-0.24,0.15-0.25,0.39-0.05,0.72l0.1,0.16c0.2,0.33,0.43,0.42,0.67,0.28C32.83,14.68,32.85,14.43,32.64,14.1z"/>
	<path d="M31.82,12.04l-0.16-0.26c-0.29-0.46-0.2-0.92,0.21-1.18c0.42-0.26,0.87-0.13,1.16,0.33l0.16,0.26
		c0.29,0.47,0.21,0.93-0.21,1.19C32.55,12.64,32.11,12.51,31.82,12.04z M34.61,9.51l-1.16,5.16l-0.24-0.39l1.16-5.16L34.61,9.51z
		 M32.83,11.35l-0.1-0.16c-0.2-0.33-0.43-0.42-0.67-0.28c-0.23,0.15-0.25,0.39-0.05,0.72l0.1,0.16c0.2,0.33,0.43,0.42,0.67,0.28
		C33.02,11.92,33.03,11.67,32.83,11.35z M34.78,12.84l-0.16-0.26c-0.29-0.46-0.21-0.92,0.21-1.18c0.42-0.26,0.87-0.13,1.16,0.33
		L36.15,12c0.29,0.47,0.21,0.93-0.21,1.19C35.52,13.45,35.07,13.31,34.78,12.84z M35.8,12.15l-0.1-0.16
		c-0.2-0.33-0.43-0.42-0.67-0.28c-0.24,0.15-0.25,0.39-0.05,0.72l0.1,0.16c0.2,0.33,0.43,0.42,0.67,0.28
		C35.98,12.73,36,12.48,35.8,12.15z"/>
	<path d="M37.23,12.32l-0.24-0.39l0.73-0.45l-1.74-2.81l-0.73,0.45L35,8.73l1.89-1.17l0.24,0.39L36.41,8.4l1.74,2.81l0.73-0.45
		l0.24,0.39L37.23,12.32z"/>
	<path d="M42.44,8.55l0.24,0.39l-2.5,1.55l-0.24-0.39L41,9.45l-1.68-2.71l-0.04,0.02l-0.62,1.3L38.37,7.6l0.64-1.36l0.43-0.27
		l1.99,3.21L42.44,8.55z"/>
	<path d="M42.36,4.16c0.7-0.43,1.44-0.26,1.87,0.44c0.43,0.69,0.25,1.44-0.45,1.87l-0.74,0.46l0.8,1.29L43.39,8.5L41.17,4.9
		L42.36,4.16z M42.79,6.54l0.64-0.4c0.52-0.32,0.65-0.78,0.35-1.27c-0.3-0.49-0.77-0.58-1.29-0.26l-0.64,0.4L42.79,6.54z"/>
	<path d="M21.2,30.73l-0.38,0.24l-1.16-1.86c-0.2-0.33-0.43-0.43-0.66-0.29c-0.24,0.15-0.25,0.44-0.04,0.78l1.13,1.82l-0.38,0.23
		l-1.16-1.87c-0.2-0.33-0.43-0.42-0.66-0.28c-0.24,0.15-0.26,0.45-0.05,0.78l1.13,1.82l-0.38,0.24l-1.67-2.7l0.38-0.23l0.24,0.38
		l0.04-0.03c-0.1-0.31-0.01-0.59,0.25-0.75s0.53-0.11,0.75,0.12l0.04-0.03c-0.09-0.3,0.02-0.6,0.3-0.77
		c0.38-0.23,0.73-0.09,1.05,0.41L21.2,30.73z"/>
	<path d="M22.09,27.44c0.82-0.27,1.3-0.15,1.63,0.38c0.37,0.59,0.19,1.26-0.44,1.72l0.17,0.28L23.16,30l-0.17-0.28
		c-0.69,0.36-1.36,0.24-1.76-0.33l0.4-0.25c0.26,0.33,0.69,0.4,1.13,0.2l-0.85-1.36l-0.06,0.02c-0.78,0.25-1.28,0.13-1.6-0.39
		c-0.35-0.56-0.18-1.19,0.42-1.64l-0.17-0.28l0.3-0.18l0.17,0.28c0.63-0.32,1.26-0.19,1.63,0.34l-0.39,0.24
		c-0.25-0.31-0.62-0.38-1.01-0.21l0.8,1.29L22.09,27.44z M20.9,26.35c-0.36,0.29-0.46,0.66-0.25,1c0.19,0.31,0.48,0.37,1,0.22
		L20.9,26.35z M23.05,29.17c0.38-0.3,0.5-0.72,0.28-1.08c-0.2-0.33-0.52-0.39-1.08-0.21L23.05,29.17z"/>
	<path d="M27.05,27.58c-0.61,0.38-0.92,0.3-1.3-0.31l-0.35-0.56c-0.24-0.38-0.6-0.47-1.15-0.05l-0.28-0.45
		c0.62-0.3,0.71-0.66,0.47-1.05L24.1,24.6c-0.38-0.62-0.31-0.93,0.3-1.3l0.34-0.21l0.21,0.34l-0.27,0.17
		c-0.37,0.23-0.39,0.36-0.12,0.8l0.41,0.66c0.22,0.35,0.1,0.74-0.4,1.07l0.02,0.04c0.51-0.3,0.92-0.23,1.13,0.11l0.41,0.66
		c0.27,0.43,0.39,0.48,0.77,0.24l0.27-0.17l0.21,0.34L27.05,27.58z"/>
	<path d="M27.23,25.12l-0.29-0.47c-0.75-1.21-0.69-2.14,0.18-2.68c0.83-0.51,1.63-0.26,2.24,0.73l0.46,0.74
		c0.25,0.4,0.19,0.77-0.17,0.99l-0.63,0.39c-0.19,0.12-0.38,0.07-0.49-0.11l-0.63-1.02c-0.12-0.19-0.09-0.36,0.05-0.45
		c0.14-0.09,0.31-0.03,0.43,0.16l0.64,1.03l0.41-0.25c0.23-0.14,0.26-0.29,0.1-0.54l-0.43-0.7c-0.53-0.85-1.13-1.07-1.79-0.67
		c-0.7,0.43-0.71,1.12-0.04,2.21l0.24,0.39c0.68,1.1,1.34,1.39,2.1,0.92c0.22-0.14,0.44-0.32,0.51-0.44l0.18,0.29
		c-0.08,0.13-0.31,0.32-0.55,0.48C28.84,26.67,27.98,26.33,27.23,25.12z"/>
	<path d="M29.31,22.07l-0.16-0.26c-0.29-0.46-0.2-0.92,0.21-1.18c0.42-0.26,0.87-0.13,1.16,0.33l0.16,0.26
		c0.29,0.47,0.21,0.93-0.21,1.19C30.04,22.67,29.6,22.54,29.31,22.07z M32.1,19.53l-1.16,5.16l-0.24-0.39l1.16-5.16L32.1,19.53z
		 M30.32,21.38l-0.1-0.16c-0.2-0.33-0.43-0.42-0.67-0.28c-0.23,0.15-0.25,0.39-0.05,0.72l0.1,0.16c0.2,0.33,0.43,0.42,0.67,0.28
		C30.51,21.95,30.52,21.7,30.32,21.38z M32.27,22.87l-0.16-0.26c-0.29-0.46-0.21-0.92,0.21-1.18c0.42-0.26,0.87-0.13,1.16,0.33
		l0.16,0.26c0.29,0.47,0.21,0.93-0.21,1.19C33.01,23.48,32.56,23.34,32.27,22.87z M33.28,22.18l-0.1-0.16
		c-0.2-0.33-0.43-0.42-0.67-0.28c-0.24,0.15-0.25,0.39-0.05,0.72l0.1,0.16c0.2,0.33,0.43,0.42,0.67,0.28
		C33.47,22.76,33.49,22.5,33.28,22.18z"/>
	<path d="M34.47,22.5l-2.23-3.59l0.42-0.26l3.27,1.84l0.03-0.02l-1.73-2.8l0.4-0.25l2.23,3.59l-0.42,0.26l-3.28-1.85l-0.03,0.02
		l1.74,2.8L34.47,22.5z"/>
	<path d="M38.15,18.78l-0.04,1.46l-0.47,0.29l0.09-1.93l-1.77-0.77l0.5-0.31l1.31,0.61l0.03-0.02l0.04-1.44l0.48-0.29l-0.1,1.9
		l1.78,0.79l-0.49,0.3l-1.33-0.62L38.15,18.78z"/>
	<path d="M42.52,19.18l-3.18-5.14l0.39-0.24l3.18,5.14L42.52,19.18z"/>
	<path d="M46,15.83l-4.4-3.19l0.42-0.26l4.4,3.19L46,15.83z"/>
	<path d="M46.37,10.65l-1.18-0.43l0.52-0.32l1.12,0.48L46.37,10.65z"/>
	<path d="M52.54,11.87l-0.57-0.27c-0.12,0.18-0.29,0.34-0.5,0.47c-0.82,0.51-1.68,0.23-2.3-0.76l-0.36-0.58
		c-0.62-0.99-0.48-1.89,0.34-2.4c0.82-0.51,1.68-0.23,2.3,0.76l0.36,0.58c0.34,0.55,0.45,1.06,0.35,1.5l0.86,0.41L52.54,11.87z
		 M49.61,11.03c0.47,0.75,1.06,0.97,1.61,0.63c0.13-0.08,0.23-0.17,0.3-0.28l-0.95-0.45l0.47-0.29l0.64,0.3
		c0.02-0.29-0.08-0.63-0.31-1l-0.35-0.57c-0.47-0.76-1.06-0.97-1.61-0.63s-0.62,0.97-0.15,1.72L49.61,11.03z"/>
	<path d="M53.81,10.98l-0.21-0.34l0.27-0.17c0.37-0.23,0.39-0.36,0.12-0.8l-0.41-0.66c-0.22-0.35-0.1-0.74,0.4-1.07L53.96,7.9
		c-0.51,0.3-0.92,0.23-1.13-0.12l-0.41-0.66c-0.27-0.43-0.39-0.48-0.77-0.24l-0.27,0.17L51.16,6.7L51.5,6.5
		c0.61-0.38,0.92-0.3,1.3,0.31l0.35,0.56c0.24,0.39,0.6,0.47,1.15,0.05l0.28,0.45c-0.62,0.3-0.7,0.66-0.47,1.05l0.35,0.56
		c0.38,0.62,0.31,0.93-0.3,1.3L53.81,10.98z"/>
	<path d="M21.74,36.07l-0.98-1.57l0.44-0.27l0.98,1.57L21.74,36.07z M22.71,35.47l-0.98-1.57l0.45-0.28l0.98,1.57L22.71,35.47z"/>
	<path d="M24.2,31.89c0.84,0.26,1.55,0.83,2.08,1.68c0.52,0.85,0.72,1.74,0.58,2.61l-0.42,0.26c0.07-1.04-0.11-1.81-0.6-2.6
		c-0.48-0.78-1.1-1.28-2.06-1.69L24.2,31.89z"/>
	<path d="M28.04,32.16l-0.98-1.57l0.44-0.27l0.98,1.57L28.04,32.16z M29.01,31.56l-0.98-1.57l0.45-0.28l0.98,1.57L29.01,31.56z"/>
	<path d="M33.09,32.97L32.31,31l0.57-0.36l0.65,2.05L33.09,32.97z M31.24,29.71c-0.16-0.25-0.08-0.59,0.17-0.74s0.58-0.07,0.74,0.18
		c0.16,0.25,0.08,0.59-0.17,0.74S31.39,29.96,31.24,29.71z"/>
	<path d="M36.51,27.49l0.31,0.5c0.43,0.69,0.3,1.4-0.32,1.78c-0.39,0.24-0.78,0.25-1.08,0.03l-0.05,0.03l0.82,1.33l-0.43,0.27
		l-2.24-3.61l0.42-0.26l0.26,0.41l0.04-0.03c-0.04-0.39,0.14-0.72,0.53-0.96C35.39,26.6,36.08,26.8,36.51,27.49z M34.66,28.72
		l0.24,0.39c0.31,0.5,0.79,0.64,1.24,0.37c0.45-0.28,0.53-0.77,0.22-1.27l-0.24-0.39c-0.31-0.5-0.79-0.64-1.24-0.36
		C34.44,27.73,34.36,28.22,34.66,28.72z"/>
	<path d="M38.5,25.74c0.82-0.27,1.3-0.15,1.63,0.38c0.37,0.59,0.19,1.26-0.44,1.72l0.17,0.28l-0.3,0.18l-0.17-0.28
		c-0.69,0.36-1.36,0.24-1.76-0.33l0.4-0.25c0.26,0.33,0.69,0.4,1.13,0.2l-0.85-1.36l-0.06,0.02c-0.78,0.25-1.28,0.13-1.6-0.39
		c-0.35-0.56-0.18-1.19,0.42-1.64l-0.17-0.28l0.3-0.18l0.17,0.28c0.63-0.32,1.26-0.19,1.63,0.34l-0.39,0.24
		c-0.25-0.31-0.62-0.38-1.01-0.21l0.8,1.29L38.5,25.74z M37.3,24.65c-0.36,0.29-0.46,0.66-0.25,1c0.19,0.31,0.48,0.37,1,0.22
		L37.3,24.65z M39.46,27.47c0.38-0.3,0.5-0.72,0.28-1.08c-0.2-0.33-0.52-0.39-1.08-0.21L39.46,27.47z"/>
	<path d="M43.45,25.88c-0.61,0.38-0.92,0.3-1.3-0.31l-0.35-0.56c-0.24-0.38-0.6-0.47-1.15-0.05l-0.28-0.45
		c0.62-0.3,0.71-0.66,0.47-1.05L40.5,22.9c-0.38-0.62-0.31-0.93,0.3-1.3l0.34-0.21l0.21,0.34l-0.27,0.17
		c-0.37,0.23-0.39,0.36-0.12,0.8l0.41,0.66c0.22,0.35,0.1,0.74-0.4,1.07l0.02,0.04c0.51-0.3,0.92-0.23,1.13,0.11l0.41,0.66
		c0.27,0.43,0.39,0.48,0.77,0.24l0.27-0.17l0.21,0.34L43.45,25.88z"/>
	<path d="M45.08,22.19l1.39-0.08l0.02,0.43l-1.41,0.01l0.77,1.17l-0.35,0.22l-0.71-1.21l-0.63,1.26l-0.38-0.21l0.69-1.21l-1.39,0.08
		l-0.02-0.43l1.41,0l-0.77-1.17l0.35-0.22l0.71,1.21l0.63-1.26l0.38,0.21L45.08,22.19z"/>
	<path d="M48.04,23.03l-0.9-5.36l0.42-0.26l0.9,5.36L48.04,23.03z"/>
	<path d="M51.11,17.92c0.82-0.27,1.3-0.15,1.63,0.38c0.37,0.59,0.19,1.26-0.44,1.72l0.17,0.28l-0.3,0.18L52,20.21
		c-0.69,0.36-1.36,0.24-1.76-0.33l0.4-0.25c0.26,0.33,0.69,0.4,1.13,0.2l-0.85-1.36l-0.06,0.02c-0.78,0.25-1.28,0.13-1.6-0.39
		c-0.35-0.56-0.18-1.19,0.42-1.64l-0.17-0.28l0.3-0.18l0.17,0.28c0.63-0.32,1.26-0.19,1.63,0.34l-0.39,0.24
		c-0.25-0.31-0.62-0.38-1.01-0.21l0.8,1.29L51.11,17.92z M49.91,16.84c-0.36,0.29-0.46,0.66-0.25,1c0.19,0.31,0.48,0.37,1,0.22
		L49.91,16.84z M52.07,19.65c0.38-0.3,0.5-0.72,0.28-1.08c-0.2-0.33-0.52-0.39-1.08-0.21L52.07,19.65z"/>
	<path d="M55.43,15.76l0.31,0.5c0.43,0.69,0.3,1.4-0.32,1.78c-0.39,0.24-0.78,0.25-1.08,0.03l-0.05,0.03l0.82,1.33l-0.43,0.27
		l-2.24-3.61l0.42-0.26l0.26,0.41l0.04-0.03c-0.04-0.39,0.14-0.72,0.53-0.96C54.31,14.87,55,15.07,55.43,15.76z M53.58,16.99
		l0.24,0.39c0.31,0.5,0.79,0.64,1.24,0.37c0.45-0.28,0.53-0.77,0.22-1.27l-0.24-0.39c-0.31-0.5-0.79-0.64-1.24-0.36
		C53.36,16,53.27,16.49,53.58,16.99z"/>
	<path d="M58.15,16.29l-0.92-1.48l-2.51-1.37l0.49-0.3l1.93,1.08l0.03-0.02l-0.11-2.21l0.49-0.3l0.11,2.85l0.92,1.48L58.15,16.29z"
		/>
	<path d="M58.99,13.06l-0.25-0.41l2.36-1.46l0.53,0.24L58.99,13.06z M59.7,14.2l-0.25-0.41l2.63-1.63l0.25,0.41L59.7,14.2z"/>
	<path d="M33.73,41.06l-0.78-1.98l0.57-0.36l0.65,2.06L33.73,41.06z"/>
	<path d="M36.18,38.85l-0.21-0.34l0.27-0.17c0.37-0.23,0.39-0.36,0.12-0.8l-0.41-0.66c-0.22-0.35-0.1-0.74,0.4-1.07l-0.02-0.04
		c-0.51,0.3-0.92,0.23-1.13-0.12L34.79,35c-0.27-0.43-0.39-0.48-0.77-0.24l-0.27,0.17l-0.21-0.34l0.34-0.21
		c0.61-0.38,0.92-0.3,1.3,0.31l0.35,0.56c0.24,0.39,0.6,0.47,1.15,0.05l0.28,0.45c-0.62,0.3-0.7,0.66-0.47,1.05l0.35,0.56
		c0.38,0.62,0.31,0.93-0.3,1.3L36.18,38.85z"/>
	<path d="M40.65,37.28l-3.18-5.14l0.39-0.24l3.18,5.14L40.65,37.28z"/>
	<path d="M44.13,33.93l-4.4-3.19l0.42-0.26l4.4,3.19L44.13,33.93z"/>
	<path d="M47.7,31.24l-0.38,0.24l-1.16-1.86c-0.2-0.33-0.43-0.43-0.66-0.29c-0.24,0.15-0.25,0.44-0.04,0.78l1.13,1.82l-0.38,0.23
		l-1.16-1.87c-0.2-0.33-0.43-0.42-0.66-0.28c-0.24,0.15-0.26,0.45-0.05,0.78l1.13,1.82l-0.38,0.24l-1.67-2.7l0.38-0.23l0.24,0.38
		l0.04-0.03c-0.1-0.31-0.01-0.59,0.25-0.75c0.25-0.16,0.53-0.11,0.75,0.12l0.04-0.03c-0.09-0.3,0.02-0.6,0.3-0.77
		c0.38-0.23,0.73-0.09,1.05,0.41L47.7,31.24z"/>
	<path d="M49.94,29.28c0.05,0.39-0.14,0.72-0.53,0.96c-0.62,0.39-1.31,0.19-1.74-0.5l-0.31-0.5c-0.43-0.69-0.3-1.4,0.32-1.78
		c0.39-0.24,0.78-0.25,1.08-0.03l0.04-0.03l-0.92-1.48l0.43-0.27l2.33,3.76l-0.42,0.26l-0.26-0.41L49.94,29.28z M48.06,29.41
		c0.31,0.5,0.79,0.64,1.24,0.37c0.44-0.27,0.53-0.77,0.22-1.27l-0.24-0.39c-0.31-0.5-0.79-0.64-1.24-0.36
		c-0.45,0.28-0.53,0.77-0.23,1.27L48.06,29.41z"/>
	<path d="M51.23,26.26l-0.98-1.57l0.45-0.28l0.98,1.57L51.23,26.26z"/>
	<path d="M54.38,24.3l-0.98-1.57l0.45-0.28l0.98,1.57L54.38,24.3z"/>
	<path d="M58.05,22.08c0.82-0.27,1.3-0.15,1.63,0.38c0.37,0.59,0.19,1.26-0.44,1.72l0.17,0.28l-0.3,0.18l-0.17-0.28
		c-0.69,0.36-1.36,0.24-1.76-0.33l0.4-0.25c0.26,0.33,0.69,0.4,1.13,0.2l-0.85-1.36l-0.06,0.02c-0.78,0.25-1.28,0.13-1.6-0.39
		c-0.35-0.56-0.18-1.19,0.42-1.64l-0.17-0.28l0.3-0.18l0.17,0.28c0.63-0.32,1.26-0.19,1.63,0.34l-0.39,0.24
		c-0.25-0.31-0.62-0.38-1.01-0.21l0.8,1.29L58.05,22.08z M56.86,21c-0.36,0.29-0.46,0.66-0.25,1c0.19,0.31,0.48,0.37,1,0.22
		L56.86,21z M59.01,23.82c0.38-0.3,0.5-0.72,0.28-1.08c-0.2-0.33-0.52-0.39-1.08-0.21L59.01,23.82z"/>
	<path d="M63.01,22.22c-0.61,0.38-0.92,0.3-1.3-0.31l-0.35-0.56c-0.24-0.38-0.6-0.47-1.15-0.05l-0.28-0.45
		c0.62-0.3,0.71-0.66,0.47-1.05l-0.35-0.56c-0.38-0.62-0.31-0.93,0.3-1.3l0.34-0.21l0.21,0.34l-0.27,0.17
		c-0.37,0.23-0.39,0.36-0.12,0.8l0.41,0.66c0.22,0.35,0.1,0.74-0.4,1.07l0.02,0.04c0.51-0.3,0.92-0.23,1.13,0.11l0.41,0.66
		c0.27,0.43,0.39,0.48,0.77,0.24l0.27-0.17l0.21,0.34L63.01,22.22z"/>
	<path d="M64.63,18.54l1.39-0.08l0.02,0.43l-1.41,0.01l0.77,1.17l-0.35,0.22l-0.71-1.21l-0.63,1.26l-0.38-0.21l0.69-1.21l-1.39,0.08
		l-0.02-0.43l1.41,0l-0.77-1.17l0.35-0.22l0.71,1.21l0.63-1.26l0.38,0.21L64.63,18.54z"/>
	<path d="M66.38,17.74c-0.01-0.01-0.03-0.04-0.04-0.06c-0.3-0.49-0.22-0.99,0.2-1.25c0.24-0.15,0.47-0.17,0.83-0.09
		c0.28,0.08,0.43,0.08,0.55,0c0.19-0.12,0.21-0.35,0.05-0.65l0.39-0.24l0.03,0.05c0.3,0.49,0.23,0.98-0.19,1.24
		c-0.24,0.15-0.48,0.18-0.83,0.09c-0.29-0.08-0.43-0.08-0.54-0.01c-0.21,0.13-0.23,0.35-0.06,0.66L66.38,17.74z"/>
	<path d="M36.53,46.64l-0.22-0.35l0.93-0.57l-1.24-2l-0.92,0.57l-0.22-0.35l1.34-0.83l1.46,2.35l0.89-0.55l0.22,0.35L36.53,46.64z
		 M34.98,42.46c-0.12-0.2-0.06-0.44,0.14-0.56c0.2-0.12,0.44-0.07,0.57,0.13c0.12,0.2,0.06,0.44-0.13,0.57
		C35.35,42.72,35.1,42.66,34.98,42.46z"/>
	<path d="M39.78,41.88c0.82-0.27,1.3-0.15,1.63,0.38c0.37,0.59,0.19,1.26-0.44,1.72l0.17,0.28l-0.3,0.18l-0.17-0.28
		c-0.69,0.36-1.36,0.24-1.76-0.33l0.4-0.25c0.26,0.33,0.69,0.4,1.13,0.2l-0.85-1.36l-0.06,0.02c-0.78,0.25-1.28,0.13-1.6-0.39
		c-0.35-0.56-0.18-1.19,0.42-1.64l-0.17-0.28l0.3-0.18l0.17,0.28c0.63-0.32,1.26-0.19,1.63,0.34l-0.39,0.24
		c-0.25-0.31-0.62-0.38-1.01-0.21l0.8,1.29L39.78,41.88z M38.58,40.8c-0.36,0.29-0.46,0.66-0.25,1c0.19,0.31,0.48,0.37,1,0.22
		L38.58,40.8z M40.74,43.62c0.38-0.3,0.5-0.72,0.28-1.08c-0.2-0.33-0.52-0.39-1.08-0.21L40.74,43.62z"/>
	<path d="M44.73,42.02c-0.61,0.38-0.92,0.3-1.3-0.31l-0.35-0.56c-0.24-0.38-0.6-0.47-1.15-0.05l-0.28-0.45
		c0.62-0.3,0.71-0.66,0.47-1.05l-0.35-0.56c-0.38-0.62-0.31-0.93,0.3-1.3l0.34-0.21l0.21,0.34l-0.27,0.17
		c-0.37,0.23-0.39,0.36-0.12,0.8l0.41,0.66c0.22,0.35,0.1,0.74-0.4,1.07l0.02,0.04c0.51-0.3,0.92-0.23,1.13,0.11l0.41,0.66
		c0.27,0.43,0.39,0.48,0.77,0.24l0.27-0.17l0.21,0.34L44.73,42.02z"/>
	<path d="M46.36,38.34l1.39-0.08l0.02,0.43l-1.41,0.01l0.77,1.17l-0.35,0.22l-0.71-1.21l-0.63,1.26l-0.38-0.21l0.69-1.21l-1.39,0.08
		l-0.02-0.43l1.41,0l-0.77-1.17l0.35-0.22l0.71,1.21l0.63-1.26l0.38,0.21L46.36,38.34z"/>
	<path d="M48.11,37.54c-0.01-0.01-0.03-0.04-0.04-0.06c-0.3-0.49-0.22-0.99,0.2-1.25c0.24-0.15,0.47-0.17,0.83-0.09
		c0.28,0.08,0.43,0.08,0.55,0c0.19-0.12,0.21-0.35,0.05-0.65l0.39-0.24l0.03,0.05c0.3,0.49,0.23,0.98-0.19,1.24
		c-0.24,0.15-0.48,0.18-0.83,0.09c-0.29-0.08-0.43-0.08-0.54-0.01c-0.21,0.13-0.23,0.35-0.06,0.66L48.11,37.54z"/>
	<path d="M51.26,35.59c-0.01-0.01-0.03-0.04-0.04-0.06c-0.3-0.49-0.22-0.99,0.2-1.25c0.24-0.15,0.47-0.17,0.83-0.09
		c0.28,0.08,0.43,0.08,0.55,0c0.19-0.12,0.21-0.35,0.05-0.65l0.39-0.24l0.03,0.05c0.3,0.49,0.23,0.98-0.19,1.24
		c-0.24,0.15-0.48,0.18-0.83,0.09c-0.29-0.08-0.43-0.08-0.54-0.01c-0.21,0.13-0.23,0.35-0.06,0.66L51.26,35.59z"/>
	<path d="M55.74,35.2l-0.21-0.34l0.27-0.17c0.37-0.23,0.39-0.36,0.12-0.8l-0.41-0.66c-0.22-0.35-0.1-0.74,0.4-1.07l-0.02-0.04
		c-0.51,0.3-0.92,0.23-1.13-0.12l-0.41-0.66c-0.27-0.43-0.39-0.48-0.77-0.24l-0.27,0.17l-0.21-0.34l0.34-0.21
		c0.61-0.38,0.92-0.3,1.3,0.31l0.35,0.56c0.24,0.39,0.6,0.47,1.15,0.05l0.28,0.45c-0.62,0.3-0.7,0.66-0.47,1.05l0.35,0.56
		c0.38,0.62,0.31,0.93-0.3,1.3L55.74,35.2z"/>
	<path d="M56.87,30.29l0.41-0.25l0.29,0.48l0.03-0.02c-0.06-0.43,0.13-0.81,0.54-1.06c0.59-0.36,1.12-0.21,1.53,0.44l1.09,1.75
		l-0.42,0.26l-1.02-1.65c-0.3-0.49-0.64-0.59-1.06-0.33c-0.45,0.28-0.55,0.77-0.27,1.23l0.99,1.59l-0.42,0.26L56.87,30.29z"/>
	<path d="M60.64,26.95l0.45,0.73l1.1-0.68l0.22,0.36l-1.09,0.68l0.94,1.52c0.18,0.29,0.49,0.33,0.87,0.09
		c0.15-0.09,0.42-0.27,0.49-0.32l0.22,0.36c-0.06,0.05-0.38,0.27-0.51,0.35c-0.67,0.42-1.14,0.35-1.49-0.21L60.9,28.3l-0.72,0.45
		l-0.22-0.36l0.72-0.45l-0.45-0.73L60.64,26.95z"/>
	<path d="M64.11,26.31l-0.72,0.45l-0.22-0.36l0.72-0.45l-0.17-0.27c-0.32-0.52-0.15-0.97,0.51-1.38c0.16-0.1,0.54-0.32,0.64-0.36
		l0.21,0.35c-0.12,0.06-0.48,0.27-0.63,0.36c-0.38,0.23-0.49,0.5-0.32,0.77l0.17,0.28l1.19-0.74l0.22,0.36l-1.19,0.74l1.45,2.33
		l-0.42,0.26L64.11,26.31z"/>
	<path d="M65.91,24.79l-0.16-0.26c-0.29-0.46-0.2-0.92,0.21-1.18c0.42-0.26,0.87-0.13,1.16,0.33l0.16,0.26
		c0.29,0.47,0.21,0.93-0.21,1.19C66.64,25.39,66.2,25.26,65.91,24.79z M68.7,22.26l-1.16,5.16l-0.24-0.39l1.16-5.16L68.7,22.26z
		 M66.92,24.1l-0.1-0.16c-0.2-0.33-0.43-0.42-0.67-0.28c-0.23,0.15-0.25,0.39-0.05,0.72l0.1,0.16c0.2,0.33,0.43,0.42,0.67,0.28
		C67.11,24.67,67.12,24.43,66.92,24.1z M68.87,25.6l-0.16-0.26c-0.29-0.46-0.21-0.92,0.21-1.18c0.42-0.26,0.87-0.13,1.16,0.33
		l0.16,0.26c0.29,0.47,0.21,0.93-0.21,1.19C69.61,26.2,69.16,26.06,68.87,25.6z M69.88,24.9l-0.1-0.16
		c-0.2-0.33-0.43-0.42-0.67-0.28c-0.24,0.15-0.25,0.39-0.05,0.72l0.1,0.16c0.2,0.33,0.43,0.42,0.67,0.28
		C70.07,25.48,70.09,25.23,69.88,24.9z"/>
	<path d="M70.56,21.73c0.56-0.35,1.12-0.3,1.45,0.12L71.6,22.1c-0.2-0.21-0.51-0.21-0.83-0.01c-0.34,0.21-0.47,0.51-0.31,0.76
		c0.13,0.21,0.34,0.24,0.73,0.1l0.43-0.15c0.6-0.21,0.98-0.13,1.22,0.27c0.31,0.5,0.09,1.08-0.55,1.48
		c-0.61,0.38-1.2,0.35-1.53-0.09l0.43-0.27c0.22,0.21,0.55,0.21,0.89-0.01c0.37-0.23,0.5-0.54,0.34-0.8
		c-0.13-0.21-0.34-0.25-0.73-0.11l-0.46,0.16c-0.56,0.19-0.95,0.09-1.19-0.29C69.76,22.66,69.97,22.1,70.56,21.73z"/>
</g>
<path class="st5" d="M6.46,24.87"/>
</svg>
